<?xml version="1.0" standalone="no"?>
<!DOCTYPE svg PUBLIC "-//W3C//DTD SVG 1.1//EN" "http://www.w3.org/Graphics/SVG/1.1/DTD/svg11.dtd" >
<svg xmlns="http://www.w3.org/2000/svg">
<metadata>Generated by IcoMoon</metadata>
<defs>
<font id="icomoon" horiz-adv-x="1024">
<font-face units-per-em="1024" ascent="960" descent="-64" />
<missing-glyph horiz-adv-x="1024" />
<glyph unicode="&#x20;" horiz-adv-x="512" d="" />
<glyph unicode="&#xe903;" glyph-name="account" d="M935.564 26.764c-6.982 118.691-67.491 228.073-160.582 302.545l-4.655 2.327c-4.655 2.327-11.636 4.655-18.618 4.655-11.636 0-20.945-11.636-20.945-23.273 0-9.309 2.327-18.618 13.964-32.582v0l4.655-4.655c79.127-55.855 123.345-141.964 132.655-253.673v-2.327c0 0 0-2.327 0-2.327 0-18.618 9.309-34.909 27.927-34.909s25.6 13.964 27.927 32.582v0l-2.327 11.636zM826.182 601.6c0 169.891-139.636 309.527-314.182 309.527-172.218 0-314.182-139.636-314.182-309.527 0-93.091 39.564-176.873 111.709-237.382-128-67.491-214.109-197.818-223.418-342.109v-6.982c0 0 0 0 0 0v0 0c0 0 0 0 0 0 0-16.291 6.982-30.255 23.273-30.255s23.273 13.964 23.273 30.255c0 0 0 0 0 0v0 6.982c11.636 137.309 97.745 256 221.091 304.873 37.236-16.291 107.055-34.909 158.255-34.909 46.545 0 93.091 9.309 134.982 30.255l32.582 18.618 25.6 16.291c76.8 60.509 121.018 148.945 121.018 244.364v0 0zM512 340.945c-137.309 0-262.982 125.673-262.982 260.655 0 137.309 125.673 260.655 262.982 260.655s262.982-125.673 262.982-260.655c0-137.309-125.673-260.655-262.982-260.655v0 0z" />
<glyph unicode="&#xe904;" glyph-name="add" d="M355.962 438.248c-0.041-0.001-0.089-0.001-0.138-0.001-5.387 0-9.753 4.367-9.753 9.753s4.367 9.753 9.753 9.753c0.048 0 0.097 0 0.145-0.001h312.069c0.041 0.001 0.089 0.001 0.138 0.001 5.387 0 9.753-4.367 9.753-9.753s-4.367-9.753-9.753-9.753c-0.048 0-0.097 0-0.145 0.001h-312.069zM511.857 282.076c-5.325 0.081-9.61 4.416-9.61 9.752 0 0.047 0 0.094 0.001 0.14v312.069c-0.001 0.041-0.001 0.089-0.001 0.138 0 5.387 4.367 9.753 9.753 9.753s9.753-4.367 9.753-9.753c0-0.048 0-0.097-0.001-0.145v-312.069c0.001-0.040 0.001-0.086 0.001-0.133 0-5.387-4.367-9.753-9.753-9.753-0.050 0-0.1 0-0.15 0.001z" />
<glyph unicode="&#xe905;" glyph-name="address-empty" d="M511.577 586.579c-42.949 0-77.646-34.909-77.646-77.646 0-42.949 34.909-77.646 77.646-77.646 42.949 0 77.646 34.909 77.646 77.646 0.212 42.949-34.698 77.646-77.646 77.646zM511.577 716.906c-114.671 0-207.974-93.302-207.974-207.974 0-45.488 34.274-115.517 98.803-202.473 51.623-69.607 105.15-125.884 107.478-128.212 0.423-0.423 1.058-0.635 1.481-0.635h0.423c0.212 0 0.635 0.212 1.269 0.846l70.030 80.185c45.488 55.855 80.185 105.785 103.035 148.311 22.003 41.045 33.217 75.319 33.217 101.977 0.212 114.671-93.091 207.974-207.762 207.974zM511.577 394.473c-63.26 0-114.46 51.412-114.46 114.46 0 63.26 51.412 114.46 114.46 114.46 63.26 0 114.46-51.412 114.46-114.46 0.212-63.048-51.2-114.46-114.46-114.46zM511.577 943.498c-273.983 0-496.132-222.149-496.132-496.344s222.149-496.132 496.132-496.132 496.132 222.149 496.132 496.132-222.149 496.344-496.132 496.344zM718.916 389.607c-23.907-44.853-60.086-96.688-107.266-154.446l-0.423-0.423-70.241-80.397c-7.405-8.463-17.983-13.329-28.985-13.329h-0.423c-10.579 0-20.945 4.443-28.35 12.060-5.712 6.136-58.182 61.355-110.44 131.597-70.453 94.783-106.208 170.314-106.208 224.476 0.423 134.77 110.017 244.575 244.998 244.575s244.787-109.805 244.787-244.787c0-32.793-12.694-72.992-37.448-119.326z" />
<glyph unicode="&#xe906;" glyph-name="auth-address" d="M392.532 245.132c-18.655 0-34.133 15.478-34.133 34.133v139.733l-34.233-0.167-5.033 5.033c-13.185 13.185-13.21 35.090 0 48.267l168.733 168.733c13.185 13.185 35.073 13.193 48.267 0.034v-0.034l168.733-168.733c13.185-13.185 13.193-35.073 0.034-48.267l-5.033-5.033-34.267 0.167v-139.733c0-18.655-15.478-34.133-34.133-34.133h-238.933zM392.532 279.265h238.933v174.067l44.167-0.233-163.633 163.633-163.633-163.633 44.167 0.233v-174.067zM460.8 251.721v128c0 13.945 11.655 25.6 25.6 25.6h51.2c13.945 0 25.6-11.655 25.6-25.6v-128h-102.4zM494.933 285.855h34.133v85.333h-34.133v-85.333z" />
<glyph unicode="&#xe907;" glyph-name="auth-bankcard" d="M341.333 294.4c-18.696 0-34.133 15.438-34.133 34.133v238.933c0 18.696 15.438 34.133 34.133 34.133h341.333c18.696 0 34.133-15.438 34.133-34.133v-238.933c0-18.696-15.438-34.133-34.133-34.133h-341.333zM341.333 328.533h341.333v238.933h-341.333v-238.933zM324.267 465.067v34.133h375.467v-34.133h-375.467z" />
<glyph unicode="&#xe908;" glyph-name="auth-career" d="M330.517 303.657c-18.475 0-33.73 13.868-33.73 30.663v214.642c0 16.795 15.255 30.663 33.73 30.663h337.3c18.475 0 33.73-13.868 33.73-30.663v-214.642c0-16.795-15.255-30.663-33.73-30.663h-337.3zM330.517 334.32h337.3v214.642h-337.3v-214.642zM414.842 548.961v68.094c0 3.767 0.614 7.998 3.096 12.187s7.010 7.614 11.035 9.253c8.049 3.277 13.298 2.455 18.018 2.455h104.352c4.72 0 9.968 0.821 18.018-2.455 4.025-1.638 8.552-5.063 11.035-9.253s3.096-8.421 3.096-12.187v-68.094h-168.65zM448.572 579.624h101.19v30.663h-101.19v-30.663zM313.652 456.972v30.663h371.030v-30.663h-371.030zM429.875 433.222c-9.201 0.135-16.603 6.947-16.603 15.331 0 0.074 0.001 0.148 0.002 0.221v47.061c-0.001 0.064-0.002 0.141-0.002 0.217 0 8.468 7.551 15.333 16.867 15.333s16.867-6.865 16.867-15.333c0-0.076-0.001-0.152-0.002-0.228v-47.061c0.001-0.062 0.002-0.136 0.002-0.21 0-8.468-7.551-15.333-16.867-15.333-0.093 0-0.185 0.001-0.277 0.002zM567.932 433.222c-9.201 0.135-16.603 6.947-16.603 15.331 0 0.074 0.001 0.148 0.002 0.221v47.061c-0.001 0.064-0.002 0.141-0.002 0.217 0 8.468 7.551 15.333 16.867 15.333s16.867-6.865 16.867-15.333c0-0.076-0.001-0.152-0.002-0.228v-47.061c0.001-0.062 0.002-0.136 0.002-0.21 0-8.468-7.551-15.333-16.867-15.333-0.093 0-0.185 0.001-0.277 0.002z" />
<glyph unicode="&#xe909;" glyph-name="auth-contact" d="M446.846 451.842c-46.925 0-85.333 38.408-85.333 85.333s38.408 85.333 85.333 85.333c46.925 0 85.333-38.408 85.333-85.333s-38.408-85.333-85.333-85.333zM446.846 485.975c28.475 0 51.2 22.725 51.2 51.2s-22.725 51.2-51.2 51.2c-28.475 0-51.2-22.725-51.2-51.2s22.725-51.2 51.2-51.2zM611.287 409.175c-32.788 0-59.733 26.945-59.733 59.733s26.945 59.733 59.733 59.733c32.788 0 59.733-26.945 59.733-59.733s-26.945-59.733-59.733-59.733zM611.287 443.308c14.35 0 25.6 11.25 25.6 25.6s-11.25 25.6-25.6 25.6c-14.35 0-25.6-11.25-25.6-25.6s11.25-25.6 25.6-25.6zM508.887 256.422c0 64.246 44.21 119.467 102.4 119.467s102.4-55.221 102.4-119.467h-34.133c0 48.872-32.214 85.333-68.267 85.333s-68.267-36.461-68.267-85.333h-34.133zM310.313 256.422c0 87.707 59.352 162.133 136.533 162.133 35.537 0 67.886-16.274 91.7-41.9l-25-23.233c-18.341 19.737-41.48 31-66.7 31-54.779 0-102.4-55.486-102.4-128h-34.133z" />
<glyph unicode="&#xe90a;" glyph-name="auth-credit-report" d="M608.256 611.84h-307.2c-16.384 0-30.72-14.336-30.72-30.72v-342.016c0-16.384 14.336-30.72 30.72-30.72h305.152c16.384 0 30.72 14.336 30.72 30.72v339.968c2.048 18.432-12.288 32.768-28.672 32.768zM581.632 239.104h-253.952c-14.336 0-26.624 12.288-26.624 26.624v288.768c0 14.336 12.288 26.624 26.624 26.624h253.952c14.336 0 26.624-12.288 26.624-26.624v-288.768c0-14.336-12.288-26.624-26.624-26.624zM352.256 466.432h126.976c4.096 0 8.192 4.096 8.192 10.24v18.432c0 6.144-4.096 10.24-8.192 10.24h-126.976c-4.096 0-8.192-4.096-8.192-10.24v-18.432c2.048-6.144 4.096-10.24 8.192-10.24zM544.768 427.52h-192.512c-4.096 0-8.192-4.096-8.192-10.24v-18.432c0-6.144 4.096-10.24 8.192-10.24h192.512c4.096 0 8.192 4.096 8.192 10.24v18.432c0 4.096-4.096 10.24-8.192 10.24zM499.712 349.696h-145.408c-4.096 0-8.192-4.096-8.192-10.24v-18.432c0-6.144 4.096-10.24 8.192-10.24h145.408c4.096 0 8.192 4.096 8.192 10.24v18.432c0 6.144-4.096 10.24-8.192 10.24zM690.176 687.616h-258.048c-34.816 0-61.44-26.624-61.44-61.44h36.864c8.192 18.432 26.624 30.72 47.104 30.72h217.088c28.672 0 51.2-24.576 51.2-53.248v-311.296c0-24.576-16.384-45.056-36.864-51.2v-32.768h6.144c34.816 0 61.44 28.672 61.44 61.44v356.352c0 34.816-28.672 61.44-63.488 61.44zM512 904.704c-251.904 0-456.704-204.8-456.704-456.704s204.8-456.704 456.704-456.704c251.904 0 456.704 204.8 456.704 456.704s-204.8 456.704-456.704 456.704zM512 32.256c-229.376 0-415.744 186.368-415.744 415.744s186.368 415.744 415.744 415.744 415.744-186.368 415.744-415.744c0-229.376-186.368-415.744-415.744-415.744z" />
<glyph unicode="&#xe90b;" glyph-name="auth-education" d="M778.24 536.064c0 2.048 0 4.096 2.048 6.144v10.24c0 2.048 0 4.096-2.048 6.144-6.144 20.48-18.432 32.768-38.912 36.864-71.68 16.384-143.36 32.768-217.088 49.152-2.048 0-4.096 0-8.192 2.048h-10.24c-10.24-2.048-22.528-4.096-32.768-8.192-63.488-14.336-129.024-28.672-192.512-45.056-20.48-4.096-34.816-20.48-36.864-43.008 0 0 0 0 0-2.048v-10.24c0 0 0 0 0-2.048 2.048-20.48 18.432-36.864 38.912-43.008 14.336-4.096 26.624-6.144 40.96-10.24 2.048 0 4.096-2.048 4.096-4.096 0-45.056 0-90.112 0-135.168 0-18.432 8.192-34.816 22.528-47.104 12.288-12.288 28.672-18.432 45.056-24.576 30.72-10.24 61.44-12.288 92.16-14.336 24.576 0 49.152 0 73.728 2.048 20.48 2.048 43.008 6.144 63.488 12.288 16.384 6.144 32.768 12.288 47.104 22.528 16.384 12.288 24.576 28.672 24.576 51.2 0 45.056 0 90.112 0 135.168 0 2.048 0 4.096 4.096 4.096 14.336 2.048 28.672 6.144 40.96 10.24 22.528 8.192 34.816 20.48 38.912 40.96zM663.552 347.648c0-4.096-2.048-8.192-4.096-12.288-4.096-6.144-10.24-10.24-18.432-14.336-16.384-10.24-34.816-14.336-53.248-18.432-34.816-6.144-67.584-8.192-102.4-6.144-24.576 2.048-47.104 4.096-71.68 12.288-12.288 4.096-26.624 8.192-36.864 16.384-2.048 2.048-4.096 4.096-8.192 6.144-6.144 6.144-8.192 12.288-8.192 18.432 0 40.96 0 83.968 0 124.928v4.096c4.096 0 6.144-2.048 10.24-2.048 43.008-10.24 88.064-20.48 131.072-30.72 10.24-2.048 18.432 0 26.624 2.048 43.008 10.24 88.064 20.48 131.072 30.72 0 0 2.048 0 2.048 0 0-2.048 0-2.048 0-4.096 2.048-40.96 2.048-83.968 2.048-126.976zM684.032 519.68c-55.296-12.288-110.592-24.576-165.888-38.912-2.048 0-2.048 0-4.096 0-6.144 2.048-12.288 2.048-16.384 4.096l-206.848 45.056c-8.192 2.048-14.336 8.192-14.336 16.384s6.144 14.336 14.336 16.384c43.008 10.24 83.968 20.48 126.976 28.672 28.672 6.144 59.392 14.336 88.064 20.48 4.096 0 8.192 0 12.288 0 71.68-16.384 143.36-32.768 215.040-49.152 10.24-2.048 16.384-10.24 14.336-20.48-2.048-6.144-6.144-10.24-14.336-12.288l-49.152-10.24zM765.952 259.584c-2.048 6.144-6.144 10.24-10.24 14.336-6.144 6.144-12.288 6.144-18.432 0-4.096-4.096-8.192-8.192-10.24-12.288-8.192-14.336-12.288-28.672-14.336-45.056s8.192-30.72 24.576-36.864c2.048 0 4.096 0 6.144-2.048 2.048 0 6.144 0 8.192 0s4.096 0 6.144 2.048c12.288 4.096 20.48 12.288 24.576 26.624 0 0 0 2.048 0 2.048v8.192c0 0 0 2.048 0 2.048-4.096 14.336-8.192 28.672-16.384 40.96zM729.088 462.336v-149.504c0-8.192 4.096-14.336 10.24-16.384 12.288-4.096 22.528 4.096 22.528 16.384v151.552c0 10.24-8.192 16.384-18.432 16.384-8.192-2.048-14.336-8.192-14.336-18.432zM512 904.704c-251.904 0-456.704-204.8-456.704-456.704s204.8-456.704 456.704-456.704c251.904 0 456.704 204.8 456.704 456.704s-204.8 456.704-456.704 456.704zM512 32.256c-229.376 0-415.744 186.368-415.744 415.744s186.368 415.744 415.744 415.744 415.744-186.368 415.744-415.744c0-229.376-186.368-415.744-415.744-415.744z" />
<glyph unicode="&#xe90c;" glyph-name="auth-email" d="M727.040 634.368h-430.080c-24.576 0-43.008-20.48-43.008-47.104v-280.576c0-24.576 18.432-47.104 43.008-47.104h430.080c24.576 0 43.008 20.48 43.008 47.104v282.624c0 24.576-18.432 45.056-43.008 45.056zM716.8 601.6l-172.032-161.792c-14.336-14.336-26.624-20.48-32.768-20.48s-18.432 6.144-32.768 20.48l-172.032 161.792h409.6zM286.72 316.928v253.952l133.12-124.928-133.12-129.024zM309.248 294.4l135.168 126.976 22.528-20.48c12.288-12.288 28.672-18.432 47.104-18.432s34.816 6.144 47.104 18.432l22.528 20.48 135.168-126.976h-409.6zM737.28 316.928l-133.12 129.024 133.12 124.928v-253.952zM512 904.704c-251.904 0-456.704-204.8-456.704-456.704s204.8-456.704 456.704-456.704c251.904 0 456.704 204.8 456.704 456.704s-204.8 456.704-456.704 456.704zM512 32.256c-229.376 0-415.744 186.368-415.744 415.744s186.368 415.744 415.744 415.744 415.744-186.368 415.744-415.744c0-229.376-186.368-415.744-415.744-415.744z" />
<glyph unicode="&#xe90d;" glyph-name="auth-gongjijinai" d="M256.728 446.939c-9.425 0.003-17.064 7.643-17.064 17.068 0 4.795 1.977 9.128 5.16 12.228l233.67 233.67c18.357 18.357 48.643 18.357 67 0l233.667-233.667c3.237-3.111 5.247-7.477 5.247-12.312 0-9.427-7.642-17.068-17.068-17.068-4.835 0-9.201 2.011-12.307 5.242l-233.672 233.672c-5.297 5.297-13.436 5.297-18.733 0l-233.667-233.667c-3.104-3.188-7.438-5.166-12.233-5.167zM375.467 192c-28.785 0-51.2 24.967-51.2 53.833v202.167c-0.001 0.072-0.002 0.156-0.002 0.241 0 9.427 7.642 17.068 17.068 17.068s17.068-7.642 17.068-17.068c0-0.085-0.001-0.17-0.002-0.254v-202.154c0-11.752 8.134-19.7 17.067-19.7h273.067c8.933 0 17.067 7.948 17.067 19.7v202.167c-0.001 0.072-0.002 0.156-0.002 0.241 0 9.427 7.642 17.068 17.068 17.068s17.068-7.642 17.068-17.068c0-0.085-0.001-0.17-0.002-0.254v-202.154c0-28.867-22.415-53.833-51.2-53.833h-273.067zM443.733 396.8c-0.072-0.001-0.156-0.002-0.241-0.002-9.427 0-17.068 7.642-17.068 17.068s7.642 17.068 17.068 17.068c0.085 0 0.17-0.001 0.254-0.002h136.521c0.072 0.001 0.156 0.002 0.241 0.002 9.427 0 17.068-7.642 17.068-17.068s-7.642-17.068-17.068-17.068c-0.085 0-0.17 0.001-0.254 0.002h-136.521zM443.733 328.533c-0.072-0.001-0.156-0.002-0.241-0.002-9.427 0-17.068 7.642-17.068 17.068s7.642 17.068 17.068 17.068c0.085 0 0.17-0.001 0.254-0.002h136.521c0.072 0.001 0.156 0.002 0.241 0.002 9.427 0 17.068-7.642 17.068-17.068s-7.642-17.068-17.068-17.068c-0.085 0-0.17 0.001-0.254 0.002h-136.521zM511.733 260.033c-9.311 0.15-16.802 7.733-16.802 17.066 0 0.082 0.001 0.164 0.002 0.246v136.521c-0.001 0.072-0.002 0.156-0.002 0.241 0 9.427 7.642 17.068 17.068 17.068s17.068-7.642 17.068-17.068c0-0.085-0.001-0.17-0.002-0.254v-136.521c0.001-0.070 0.002-0.152 0.002-0.234 0-9.427-7.642-17.068-17.068-17.068-0.094 0-0.187 0.001-0.281 0.002zM511.661 417.67c-4.613 0.142-8.744 2.092-11.729 5.163l-60.337 60.337c-3.236 3.111-5.247 7.477-5.247 12.312 0 9.427 7.642 17.068 17.068 17.068 4.835 0 9.201-2.011 12.307-5.242l60.339-60.339c3.191-3.105 5.172-7.441 5.172-12.239 0-9.427-7.642-17.068-17.068-17.068-0.177 0-0.353 0.003-0.529 0.008zM511.806 417.637c-9.425 0.002-17.065 7.643-17.065 17.068 0 4.811 1.991 9.158 5.194 12.261l60.338 60.338c3.111 3.236 7.477 5.247 12.312 5.247 9.427 0 17.068-7.642 17.068-17.068 0-4.835-2.011-9.201-5.242-12.307l-60.339-60.339c-3.107-3.208-7.454-5.2-12.267-5.2 0 0 0 0 0 0zM512-29.867c-263.721 0-477.867 214.145-477.867 477.867s214.145 477.867 477.867 477.867c263.721 0 477.867-214.145 477.867-477.867s-214.145-477.867-477.867-477.867zM512 4.267c245.275 0 443.733 198.458 443.733 443.733s-198.458 443.733-443.733 443.733c-245.275 0-443.733-198.458-443.733-443.733s198.458-443.733 443.733-443.733z" />
<glyph unicode="&#xe90e;" glyph-name="auth-idcard" d="M648.841 388.267h-68.267v34.133h68.267v-34.133zM648.841 473.6h-68.267v34.133h68.267v-34.133zM461.107 439.467c18.859 0 34.133 15.275 34.133 34.133s-15.275 34.133-34.133 34.133c-18.859 0-34.133-15.275-34.133-34.133s15.275-34.133 34.133-34.133zM392.841 473.6c0 37.7 30.566 68.267 68.267 68.267s68.267-30.566 68.267-68.267c0-19.098-7.885-36.335-20.548-48.725 22.699-15.326 37.615-41.301 37.615-70.741h-34.133c0 28.279-22.921 51.2-51.2 51.2s-51.2-22.921-51.2-51.2h-34.133c0 29.44 14.916 55.415 37.598 70.741-12.646 12.39-20.531 29.628-20.531 48.725zM682.974 576h-341.333v-256h341.333v256zM682.974 285.867h-341.333c-18.859 0-34.133 15.292-34.133 34.133v256c0 18.859 15.275 34.133 34.133 34.133h341.333c18.859 0 34.133-15.275 34.133-34.133v-256c0-18.842-15.275-34.133-34.133-34.133z" />
<glyph unicode="&#xe90f;" glyph-name="auth-jd" d="M512-29.867c-263.721 0-477.867 214.145-477.867 477.867s214.145 477.867 477.867 477.867c263.721 0 477.867-214.145 477.867-477.867s-214.145-477.867-477.867-477.867zM512 4.267c245.275 0 443.733 198.458 443.733 443.733s-198.458 443.733-443.733 443.733c-245.275 0-443.733-198.458-443.733-443.733s198.458-443.733 443.733-443.733zM238.93 226.135c-0.072-0.001-0.156-0.002-0.241-0.002-9.427 0-17.068 7.642-17.068 17.068s7.642 17.068 17.068 17.068c0.085 0 0.17-0.001 0.254-0.002h34.121c65.784 0 119.467 53.682 119.467 119.467v290.133c-0.001 0.072-0.002 0.156-0.002 0.241 0 9.427 7.642 17.068 17.068 17.068s17.068-7.642 17.068-17.068c0-0.085-0.001-0.17-0.002-0.254v-290.121c0-84.402-69.198-153.6-153.6-153.6h-34.133zM477.867 226.132v460.8h102.4c121.949 0 221.867-99.918 221.867-221.867v-17.067c0-121.949-99.918-221.867-221.867-221.867h-102.4zM512 260.265h68.267c103.331 0 187.733 84.402 187.733 187.733v17.067c0 103.331-84.402 187.733-187.733 187.733h-68.267v-392.533z" />
<glyph unicode="&#xe910;" glyph-name="auth-mobile" d="M512 210.432c18.432 0 30.72 12.288 30.72 30.72s-12.288 30.72-30.72 30.72-30.72-12.288-30.72-30.72c0-16.384 12.288-30.72 30.72-30.72zM645.12 738.816h-266.24c-40.96 0-75.776-34.816-75.776-77.824v-428.032c0-40.96 32.768-75.776 75.776-75.776h266.24c40.96 0 75.776 34.816 75.776 77.824v428.032c0 40.96-34.816 75.776-75.776 75.776zM348.16 648.704v12.288c0 16.384 12.288 30.72 30.72 30.72h266.24c16.384 0 30.72-12.288 30.72-30.72v-12.288h-327.68zM348.16 329.216v274.432h327.68v-274.432h-327.68zM675.84 235.008c0-16.384-12.288-30.72-30.72-30.72h-266.24c-16.384 0-30.72 12.288-30.72 30.72v47.104h327.68v-47.104zM512 904.704c-251.904 0-456.704-204.8-456.704-456.704s204.8-456.704 456.704-456.704c251.904 0 456.704 204.8 456.704 456.704s-204.8 456.704-456.704 456.704zM512 32.256c-229.376 0-415.744 186.368-415.744 415.744s186.368 415.744 415.744 415.744 415.744-186.368 415.744-415.744c0-229.376-186.368-415.744-415.744-415.744z" />
<glyph unicode="&#xe911;" glyph-name="auth-person" d="M512-29.867c-263.721 0-477.867 214.145-477.867 477.867s214.145 477.867 477.867 477.867c263.721 0 477.867-214.145 477.867-477.867s-214.145-477.867-477.867-477.867zM512 4.267c245.275 0 443.733 198.458 443.733 443.733s-198.458 443.733-443.733 443.733c-245.275 0-443.733-198.458-443.733-443.733s198.458-443.733 443.733-443.733zM289.867 191.772c-9.311 0.15-16.802 7.733-16.802 17.066 0 0.082 0.001 0.164 0.002 0.246 0 131.818 107.085 238.921 238.933 238.921 131.832 0 238.933-107.101 238.933-238.933 0.001-0.072 0.002-0.156 0.002-0.241 0-9.427-7.642-17.068-17.068-17.068s-17.068 7.642-17.068 17.068c0 0.085 0.001 0.17 0.002 0.254 0 113.403-91.384 204.787-204.8 204.787-113.434 0-204.8-91.383-204.8-204.8 0.001-0.070 0.002-0.152 0.002-0.234 0-9.427-7.642-17.068-17.068-17.068-0.094 0-0.187 0.001-0.281 0.002zM512 413.863c-84.623 0-153.6 68.96-153.6 153.6 0 84.625 68.975 153.6 153.6 153.6s153.6-68.975 153.6-153.6c0-84.64-68.977-153.6-153.6-153.6zM512 447.997c66.178 0 119.467 53.272 119.467 119.467 0 66.176-53.291 119.467-119.467 119.467s-119.467-53.291-119.467-119.467c0-66.195 53.288-119.467 119.467-119.467z" />
<glyph unicode="&#xe912;" glyph-name="auth-qq" d="M772.096 400.896l-12.288 30.72-26.624 45.056c0 0 0 0 0 0l2.048 8.192c0 2.048 0 4.096 0 4.096v0 10.24l-6.144 22.528-10.24 20.48-4.096 20.48-4.096 18.432-14.336 43.008-14.336 22.528-12.288 16.384-14.336 16.384-18.432 12.288-14.336 8.192-24.576 10.24-32.768 8.192-26.624 2.048h-32.768l-40.96-6.144-34.816-14.336-20.48-12.288-16.384-14.336-16.384-18.432-20.48-30.72-10.24-22.528-8.192-24.576-4.096-22.528v-4.096l-8.192-20.48v-6.144l-4.096-8.192-6.144-16.384c0-2.048 0-4.096 0-4.096v-8.192c0 0 0 0 0-2.048l-22.528-20.48-18.432-22.528-14.336-26.624-6.144-18.432-6.144-30.72v-20.48l2.048-22.528 4.096-12.288c0-2.048 2.048-4.096 4.096-4.096 4.096-6.144 8.192-8.192 10.24-8.192s4.096-2.048 8.192-2.048c0 0 2.048 0 2.048 0h6.144l10.24 4.096 10.24 8.192 4.096 4.096 6.144-10.24 12.288-16.384c-2.048 0-2.048-2.048-4.096-2.048l-6.144-4.096c-2.048 0-2.048-2.048-4.096-2.048l-4.096-4.096c-2.048-2.048-2.048-2.048-2.048-4.096l-4.096-10.24c0-2.048-2.048-4.096-2.048-6.144v-6.144c0 0 0-2.048 0-2.048v0c0-2.048 0-2.048 0-4.096v-2.048c0-2.048 0-4.096 0-6.144l4.096-10.24 6.144-10.24 16.384-14.336 30.72-12.288 40.96-6.144h36.864l30.72 4.096 26.624 10.24 20.48 10.24h12.288l26.624-8.192 24.576-6.144 40.96-4.096 38.912 2.048 26.624 6.144 22.528 10.24 10.24 6.144 12.288 14.336v2.048c0 0 0 2.048 0 2.048 8.192-6.144 8.192-4.096 8.192-2.048v2.048c0 2.048 0 2.048 0 4.096s0 6.144 0 8.192l-4.096 14.336-8.192 12.288c0 2.048-2.048 2.048-2.048 2.048l-14.336 10.24-8.192 4.096 12.288 16.384 4.096-4.096c0 0 2.048-2.048 2.048-2.048s2.048-2.048 4.096-2.048l2.048-2.048c0 0 2.048 0 4.096-2.048 2.048 0 4.096-2.048 6.144-2.048h2.048c2.048 0 4.096 0 6.144 2.048 2.048 0 2.048 0 4.096 2.048l4.096 2.048c2.048 0 4.096 2.048 6.144 4.096l8.192 10.24 10.24 22.528 4.096 22.528-2.048 26.624-6.144 22.528zM305.152 359.936v0 0 0zM739.328 339.456l-2.048-4.096-8.192 14.336c-2.048 4.096-6.144 8.192-8.192 8.192-6.144 4.096-16.384 4.096-22.528-2.048h-2.048c-2.048-2.048-4.096-4.096-6.144-8.192v-2.048c0 0-2.048-2.048-2.048-4.096l-8.192-22.528-12.288-20.48-10.24-10.24c-8.192-8.192-6.144-22.528 2.048-28.672 2.048-2.048 2.048-2.048 4.096-4.096l24.576-12.288 8.192-6.144 2.048-2.048v-2.048l-4.096-4.096-12.288-6.144-24.576-6.144-32.768-2.048-51.2 10.24-36.864 12.288c-2.048 0-2.048 0-4.096 0h-4.096l-14.336 2.048c-6.144 0-10.24-2.048-16.384-6.144l-28.672-14.336-14.336-4.096-18.432-2.048h-34.816l-12.288 2.048-26.624 8.192-14.336 6.144-2.048 2.048-2.048 4.096c0 0 0 0 0 0v2.048c0 2.048 0 4.096 0 4.096l2.048 4.096 2.048 2.048c2.048 0 2.048 0 4.096 2.048l18.432 4.096c2.048 0 6.144 2.048 6.144 2.048l8.192 4.096v2.048c4.096 4.096 6.144 10.24 6.144 14.336 0 6.144-4.096 12.288-4.096 12.288-2.048 2.048-4.096 4.096-6.144 6.144l-22.528 22.528-14.336 24.576-4.096 14.336c-2.048 6.144-6.144 10.24-10.24 12.288h-2.048c-6.144 2.048-12.288 2.048-18.432 0l-2.048-2.048c-4.096-2.048-8.192-8.192-8.192-8.192 0-2.048-2.048-4.096-2.048-4.096l-8.192-12.288h-2.048v18.432l4.096 22.528 10.24 24.576 14.336 20.48 10.24 12.288 24.576 20.48c6.144 4.096 8.192 14.336 6.144 20.48l-2.048 4.096v4.096l2.048 10.24 4.096 6.144c2.048 4.096 4.096 6.144 4.096 10.24v0l2.048 10.24 2.048 2.048c2.048 4.096 4.096 8.192 4.096 12.288v8.192l4.096 24.576 12.288 30.72 18.432 24.576 20.48 20.48 12.288 8.192 20.48 10.24 18.432 6.144 32.768 6.144h26.624l34.816-6.144 20.48-6.144 18.432-8.192 16.384-10.24 26.624-26.624 14.336-26.624 10.24-34.816 4.096-28.672c0 0 0 0 0-2.048s2.048-4.096 2.048-6.144l8.192-14.336 4.096-10.24 2.048-6.144-4.096-16.384c0-2.048 0-6.144 0-6.144 0-2.048 0-6.144 2.048-10.24l14.336-20.48 12.288-22.528 14.336-32.768 4.096-24.576v-16.384l-4.096-4.096zM512 904.704c-251.904 0-456.704-204.8-456.704-456.704s204.8-456.704 456.704-456.704c251.904 0 456.704 204.8 456.704 456.704s-204.8 456.704-456.704 456.704zM512 32.256c-229.376 0-415.744 186.368-415.744 415.744s186.368 415.744 415.744 415.744 415.744-186.368 415.744-415.744c0-229.376-186.368-415.744-415.744-415.744z" />
<glyph unicode="&#xe913;" glyph-name="auth-shebao" d="M512-29.867c-263.721 0-477.867 214.145-477.867 477.867s214.145 477.867 477.867 477.867c263.721 0 477.867-214.145 477.867-477.867s-214.145-477.867-477.867-477.867zM512 4.267c245.275 0 443.733 198.458 443.733 443.733s-198.458 443.733-443.733 443.733c-245.275 0-443.733-198.458-443.733-443.733s198.458-443.733 443.733-443.733zM512 499.2c-18.696 0-34.133 15.438-34.133 34.133v102.4c0 18.696 15.438 34.133 34.133 34.133h170.667c18.696 0 34.133-15.438 34.133-34.133v-102.4c0-18.696-15.438-34.133-34.133-34.133h-170.667zM512 533.333h170.667v102.4h-170.667v-102.4zM443.733 413.867v34.133h307.2v-34.133h-307.2zM580.267 209.067v307.2h34.133v-307.2h-34.133zM455.8 265.267l-24.133 24.133 153.6 153.6 24.133-24.133-153.6-153.6zM738.867 265.267l-153.6 153.6 24.133 24.133 153.6-153.6-24.133-24.133zM285.133 504.2l-24.133 24.133 153.6 153.6 24.133-24.133-153.6-153.6zM341.333 209.067v392.533h34.133v-392.533h-34.133z" />
<glyph unicode="&#xe914;" glyph-name="auth-time" d="M578.109 853.677c-241.68 0-438.437-197.934-438.437-441.379 0-243.249 196.561-441.379 438.437-441.379 241.68 0 438.241 197.934 438.241 441.379 0.196 243.445-196.561 441.379-438.241 441.379v0zM578.109 55.27c-195.58 0-354.869 160.27-354.869 357.223s159.289 357.223 354.869 357.223c195.58 0 354.869-160.27 354.869-357.223s-159.093-357.223-354.869-357.223v0zM808.411 392.092h-208.723v252.077c0 23.148-18.636 41.98-41.784 41.98s-41.784-18.832-41.784-41.98v-294.253c0-23.148 18.636-41.98 41.784-41.98h250.507c23.148 0 41.784 18.832 41.784 41.98 0 23.344-18.636 42.176-41.784 42.176v0zM304.65 854.461c20.794 10.005 29.621 35.114 19.617 56.104s-34.918 29.818-55.712 19.813c-119.663-57.674-208.723-158.897-257.962-292.487-8.043-21.775 2.943-45.903 24.717-53.946 4.708-1.766 9.612-2.55 14.516-2.55 16.87 0 32.956 10.397 39.234 27.464 41.392 112.601 115.936 197.738 215.589 245.603v0z" />
<glyph unicode="&#xe915;" glyph-name="auth-wangyin" d="M512-29.867c-263.721 0-477.867 214.145-477.867 477.867s214.145 477.867 477.867 477.867c263.721 0 477.867-214.145 477.867-477.867s-214.145-477.867-477.867-477.867zM512 4.267c245.275 0 443.733 198.458 443.733 443.733s-198.458 443.733-443.733 443.733c-245.275 0-443.733-198.458-443.733-443.733s198.458-443.733 443.733-443.733zM286.555 243.2c-26.121 0-47.6 21.538-47.6 47.667v314.267c0 26.128 21.479 47.667 47.6 47.667h450.867c26.121 0 47.667-21.527 47.667-47.667v-314.267c0-26.14-21.546-47.667-47.667-47.667h-450.867zM286.555 277.333h450.867c7.501 0 13.533 6.018 13.533 13.533v314.267c0 7.515-6.033 13.533-13.533 13.533h-450.867c-7.501 0-13.467-6.006-13.467-13.533v-314.267c0-7.527 5.966-13.533 13.467-13.533zM256 482.133c-0.072-0.001-0.156-0.002-0.241-0.002-9.427 0-17.068 7.642-17.068 17.068s7.642 17.068 17.068 17.068c0.085 0 0.17-0.001 0.254-0.002h511.987c0.072 0.001 0.156 0.002 0.241 0.002 9.427 0 17.068-7.642 17.068-17.068s-7.642-17.068-17.068-17.068c-0.085 0-0.17 0.001-0.254 0.002h-511.987zM529.067 311.467c-0.072-0.001-0.156-0.002-0.241-0.002-9.427 0-17.068 7.642-17.068 17.068s7.642 17.068 17.068 17.068c0.085 0 0.17-0.001 0.254-0.002h17.054c0.072 0.001 0.156 0.002 0.241 0.002 9.427 0 17.068-7.642 17.068-17.068s-7.642-17.068-17.068-17.068c-0.085 0-0.17 0.001-0.254 0.002h-17.054zM614.4 311.467c-0.072-0.001-0.156-0.002-0.241-0.002-9.427 0-17.068 7.642-17.068 17.068s7.642 17.068 17.068 17.068c0.085 0 0.17-0.001 0.254-0.002h85.321c0.072 0.001 0.156 0.002 0.241 0.002 9.427 0 17.068-7.642 17.068-17.068s-7.642-17.068-17.068-17.068c-0.085 0-0.17 0.001-0.254 0.002h-85.321z" />
<glyph unicode="&#xe916;" glyph-name="auth-zhifubao" d="M512-29.867c-263.721 0-477.867 214.145-477.867 477.867s214.145 477.867 477.867 477.867c263.721 0 477.867-214.145 477.867-477.867s-214.145-477.867-477.867-477.867zM512 4.267c245.275 0 443.733 198.458 443.733 443.733s-198.458 443.733-443.733 443.733c-245.275 0-443.733-198.458-443.733-443.733s198.458-443.733 443.733-443.733zM307.2 601.6c-0.072-0.001-0.156-0.002-0.241-0.002-9.427 0-17.068 7.642-17.068 17.068s7.642 17.068 17.068 17.068c0.085 0 0.17-0.001 0.254-0.002h426.654c0.072 0.001 0.156 0.002 0.241 0.002 9.427 0 17.068-7.642 17.068-17.068s-7.642-17.068-17.068-17.068c-0.085 0-0.17 0.001-0.254 0.002h-426.654zM511.733 533.1c-9.311 0.15-16.802 7.733-16.802 17.066 0 0.082 0.001 0.164 0.002 0.246v153.588c-0.001 0.072-0.002 0.156-0.002 0.241 0 9.427 7.642 17.068 17.068 17.068s17.068-7.642 17.068-17.068c0-0.085-0.001-0.17-0.002-0.254v-153.587c0.001-0.069 0.002-0.152 0.002-0.234 0-9.427-7.642-17.068-17.068-17.068-0.094 0-0.187 0.001-0.281 0.002zM341.333 516.267c-0.072-0.001-0.156-0.002-0.241-0.002-9.427 0-17.068 7.642-17.068 17.068s7.642 17.068 17.068 17.068c0.085 0 0.17-0.001 0.254-0.002h358.387c0.072 0.001 0.156 0.002 0.241 0.002 9.427 0 17.068-7.642 17.068-17.068s-7.642-17.068-17.068-17.068c-0.085 0-0.17 0.001-0.254 0.002h-358.387zM358.411 209.044c-36.209 0-73.259 8.576-102.7 27.867s-50.9 51.070-50.9 91.6c0 47.672 25.467 84.113 61.133 105.8s81.063 30.733 126.6 30.733c64.746 0 138.277-24.94 211.9-55.567 33.644 41.008 63.411 84.64 80.667 129.933 2.304 6.884 8.693 11.757 16.221 11.757 9.427 0 17.068-7.642 17.068-17.068 0-2.468-0.524-4.813-1.466-6.931-17.649-46.331-46.088-90.227-78.624-131.258 9.035-4.039 18.048-6.668 27.033-10.867 93.315-43.606 182.953-95.009 246.767-126.567 6.020-2.726 10.132-8.68 10.132-15.595 0-9.427-7.642-17.068-17.068-17.068-3.006 0-5.831 0.777-8.284 2.142-65.516 32.398-154.403 83.395-245.98 126.189-12.589 5.883-24.867 9.482-37.5 14.967-18.795-21.076-36.632-43.539-57.133-61.4-67.326-58.655-138.954-98.667-197.867-98.667zM358.411 243.177c42.070 0 111.705 34.746 175.433 90.267 16.396 14.284 30.345 32.641 45.667 49.2-67.456 26.92-133.56 48.267-186.967 48.267-40.855 0-80.798-8.699-108.867-25.767s-44.733-40.388-44.733-76.633c0-29.153 13.354-48.545 35.467-63.033s53.359-22.3 84-22.3z" />
<glyph unicode="&#xe917;" glyph-name="auth-zhima-score" d="M512 751.12c-54.821 0-109.936-29.502-136.72-78.2-28.918-52.579-0.92-112.080-0.92-112.080l0.32-0.8 0.4-0.76c0 0 19.447-37.942 34.52-58.040l0.401-0.48c2.948-3.685 5.092-5.651 9.16-9.8s9.301-9.432 15.32-15.64c12.037-12.416 27.179-28.453 41.72-45.48s28.47-35.139 37.88-50.92c9.41-15.781 12.811-29.549 12.4-32.84l-0.28-2.4 0.28-2.4c4.704-42.332-31.24-75.551-76.28-79.44-45.992 2.208-81.077 37.6-83.36 81.24 1.858 22.777 19.648 57.192 41.44 80.8l15.198 16.44-17.76 13.68c0 0-24.367 19.16-42.6 44.44-13.23 20.919-29.4 52.92-29.4 52.92l-16.2 32.36-19.4-30.52c-29.621-46.547-52.36-95.399-52.36-150.24 0-142.592 120.315-258.080 266.24-258.080s266.24 115.488 266.24 258.080c0 71.723-31.166 156-78.92 224.68s-113.262 123.48-187.32 123.48zM512 710.16c52.918 0 110.298-43.528 153.68-105.92s71.6-141.931 71.6-201.28c0-119.552-100.869-217.12-225.28-217.12s-225.28 97.568-225.28 217.12c0 32.584 12.43 64.118 29.24 96.12 5.407-9.909 6.647-13.366 12.88-23.16l0.28-0.48 0.32-0.44c16.591-23.227 28.106-31.202 37.52-39.12-21.35-27.017-39.109-58.394-41.28-90.96l-0.080-1.080 0.041-1.040c2.444-65.987 56.531-119.703 124.2-122.12l1.12-0.041 1.12 0.080c64.084 4.747 120.447 55.961 114.76 122.48 1.749 20.321-6.585 38.275-17.56 56.68-11.39 19.099-26.509 38.515-41.92 56.56s-31.133 34.664-43.48 47.4c-6.173 6.368-11.508 11.749-15.48 15.8-3.778 3.853-6.59 6.988-6.12 6.36-9.348 12.527-29.469 49.705-30.32 51.28-0.295 0.819-16.795 46.798-0.8 75.88 18.271 33.223 61.452 57.001 100.839 57.001zM512 908.8c-254.25 0-460.8-206.55-460.8-460.8s206.55-460.8 460.8-460.8c254.25 0 460.8 206.55 460.8 460.8s-206.55 460.8-460.8 460.8zM512 867.84c232.114 0 419.84-187.726 419.84-419.84s-187.726-419.84-419.84-419.84c-232.114 0-419.84 187.726-419.84 419.84s187.726 419.84 419.84 419.84z" />
<glyph unicode="&#xe918;" glyph-name="back" d="M743.818-64.157c-12.58 0.386-23.847 5.706-31.99 14.080l-465.465 465.465c-8.42 8.423-13.627 20.058-13.627 32.909s5.208 24.486 13.628 32.909l465.454 465.454c8.485 8.827 20.391 14.311 33.579 14.311 25.709 0 46.55-20.841 46.55-46.55 0-13.187-5.484-25.094-14.295-33.564l-432.561-432.56 432.545-432.545c8.704-8.467 14.104-20.293 14.104-33.379 0-25.709-20.841-46.55-46.55-46.55-0.483 0-0.963 0.007-1.442 0.022z" />
<glyph unicode="&#xe919;" glyph-name="bank" d="M50.867 432.477c-18.849 0.005-34.128 15.287-34.128 34.137 0 9.589 3.954 18.255 10.32 24.456l417.941 417.941c36.719 36.719 97.281 36.719 134 0l417.933-417.933c6.473-6.222 10.495-14.954 10.495-24.624 0-18.853-15.284-34.137-34.137-34.137-9.671 0-18.402 4.021-24.614 10.483l-417.944 417.945c-10.658 10.658-26.808 10.658-37.467 0l-417.933-417.933c-6.208-6.377-14.875-10.333-24.467-10.333zM238.933-64c-56.148 0-102.4 46.252-102.4 102.4v375.467c-0.002 0.144-0.003 0.313-0.003 0.483 0 18.853 15.284 34.137 34.137 34.137s34.137-15.284 34.137-34.137c0-0.17-0.001-0.339-0.004-0.508v-375.441c0-19.286 14.847-34.133 34.133-34.133h546.133c19.286 0 34.133 14.847 34.133 34.133v375.467c-0.002 0.144-0.003 0.313-0.003 0.483 0 18.853 15.284 34.137 34.137 34.137s34.137-15.284 34.137-34.137c0-0.17-0.001-0.339-0.004-0.508v-375.441c0-56.148-46.252-102.4-102.4-102.4h-546.133zM375.467 311.467c-0.144-0.002-0.313-0.003-0.483-0.003-18.853 0-34.137 15.284-34.137 34.137s15.284 34.137 34.137 34.137c0.17 0 0.339-0.001 0.508-0.004h273.041c0.144 0.002 0.313 0.003 0.483 0.003 18.853 0 34.137-15.284 34.137-34.137s-15.284-34.137-34.137-34.137c-0.17 0-0.339 0.001-0.508 0.004h-273.041zM375.467 174.933c-0.144-0.002-0.313-0.003-0.483-0.003-18.853 0-34.137 15.284-34.137 34.137s15.284 34.137 34.137 34.137c0.17 0 0.339-0.001 0.508-0.004h273.041c0.144 0.002 0.313 0.003 0.483 0.003 18.853 0 34.137-15.284 34.137-34.137s-15.284-34.137-34.137-34.137c-0.17 0-0.339 0.001-0.508 0.004h-273.041zM511.467 37.933c-18.622 0.3-33.603 15.467-33.603 34.133 0 0.164 0.001 0.328 0.003 0.492v273.042c-0.002 0.144-0.003 0.313-0.003 0.483 0 18.853 15.284 34.137 34.137 34.137s34.137-15.284 34.137-34.137c0-0.17-0.001-0.339-0.004-0.508v-273.041c0.002-0.139 0.003-0.303 0.003-0.467 0-18.853-15.284-34.137-34.137-34.137-0.187 0-0.375 0.002-0.561 0.005zM511.322 345.278c-9.225 0.283-17.488 4.185-23.459 10.325l-120.674 120.675c-6.473 6.222-10.494 14.954-10.494 24.624 0 18.853 15.284 34.137 34.137 34.137 9.671 0 18.402-4.021 24.613-10.483l120.677-120.678c6.383-6.209 10.343-14.881 10.343-24.478 0-18.853-15.284-34.137-34.137-34.137-0.354 0-0.706 0.005-1.058 0.016zM511.612 345.212c-18.85 0.004-34.13 15.286-34.13 34.137 0 9.623 3.982 18.316 10.387 24.521l120.676 120.675c6.222 6.473 14.954 10.494 24.624 10.494 18.853 0 34.137-15.284 34.137-34.137 0-9.671-4.021-18.402-10.483-24.613l-120.678-120.677c-6.214-6.417-14.909-10.4-24.533-10.4 0 0 0 0 0 0z" />
<glyph unicode="&#xe91a;" glyph-name="bankcard" d="M118.682 820.364c-50.812 0-93.091-42.279-93.091-93.091v-558.545c0-52.341 43.248-93.091 93.091-93.091h791.273c49.842 0 93.091 40.75 93.091 93.091v558.545c0 50.812-42.279 93.091-93.091 93.091h-791.273zM118.682 773.818h791.273c23.661 0 46.545-22.885 46.545-46.545v-558.545c0-26.786-21.915-46.545-46.545-46.545h-791.273c-24.63 0-46.545 19.759-46.545 46.545v558.545c0 23.661 22.885 46.545 46.545 46.545zM48.864 610.909v-46.545h930.909v46.545h-930.909zM886.318 355.227c-12.697-0.205-22.911-10.546-22.911-23.272 0-0.112 0.001-0.224 0.002-0.336v-93.074c0-12.906-10.367-23.273-23.273-23.273h-139.636c-0.098 0.001-0.213 0.002-0.329 0.002-12.854 0-23.275-10.421-23.275-23.275s10.421-23.275 23.275-23.275c0.116 0 0.231 0.001 0.347 0.003h139.619c38.294 0 69.818 31.524 69.818 69.818v93.091c0.001 0.095 0.002 0.207 0.002 0.319 0 12.854-10.421 23.275-23.275 23.275-0.128 0-0.255-0.001-0.383-0.003zM584.136 215.273c-0.098 0.001-0.213 0.002-0.329 0.002-12.854 0-23.275-10.421-23.275-23.275s10.421-23.275 23.275-23.275c0.116 0 0.231 0.001 0.347 0.003h46.528c0.098-0.001 0.213-0.002 0.329-0.002 12.854 0 23.275 10.421 23.275 23.275s-10.421 23.275-23.275 23.275c-0.116 0-0.231-0.001-0.347-0.003h-46.528z" />
<glyph unicode="&#xe91b;" glyph-name="billdetails_fold" d="M351.418 308.364l160.582 279.273 160.582-279.273z" />
<glyph unicode="&#xe91c;" glyph-name="billdetails_open" d="M672.582 587.636l-160.582-279.273-160.582 279.273z" />
<glyph unicode="&#xe91d;" glyph-name="carmera" d="M148.944-17.455c-69.45 0-125.682 58.235-125.682 128v535.273c0 69.765 56.232 128 125.682 128h83.909l31.045 85.909c7.25 20.095 21.891 32.256 37.409 40.636s33.115 13.091 51.864 13.091h317.636c18.754 0 36.341-4.711 51.864-13.091s30.204-20.542 37.455-40.636l31-85.909h83.909c69.45 0 125.682-58.235 125.682-128v-535.273c0-69.765-56.232-128-125.682-128h-726.091zM148.944 52.364h726.091c30.39 0 55.864 25.547 55.864 58.182v535.273c0 32.635-25.473 58.182-55.864 58.182h-92.636c-24.326 0-46.041 15.754-54.136 38.318l-33.818 93.682c0 0.007 0 0.015 0 0.023s0 0.016 0 0.024c1.037-2.874-0.044 0.257-4.955 2.908s-12.464 4.682-18.682 4.682h-317.636c-6.2 0-13.773-2.031-18.682-4.682s-5.991-5.782-4.955-2.909c0-0.007 0-0.015 0-0.023s0-0.016 0-0.024l-33.818-93.726c0-0.007 0-0.015 0-0.023s0-0.016 0-0.024c-8.076-22.35-29.72-38.226-54.045-38.226h-92.727c-30.39 0-55.864-25.547-55.864-58.182v-535.273c0-32.635 25.473-58.182 55.864-58.182zM512 192c-113.347 0-205.091 94.663-205.091 209.455s91.744 209.455 205.091 209.455c113.329 0 205.091-94.663 205.091-209.455s-91.762-209.455-205.091-209.455zM512 261.818c74.622 0 135.273 61.636 135.273 139.636s-60.651 139.636-135.273 139.636c-74.65 0-135.273-61.636-135.273-139.636s60.623-139.636 135.273-139.636z" />
<glyph unicode="&#xe91e;" glyph-name="checking" d="M512 960c-282.772 0-512-229.228-512-512s229.228-512 512-512c282.772 0 512 229.228 512 512s-229.228 512-512 512zM317.44 721.067h389.12c43.101 0 78.498-35.406 78.498-78.507v-112.64c0.001-0.072 0.002-0.156 0.002-0.241 0-9.427-7.642-17.068-17.068-17.068s-17.068 7.642-17.068 17.068c0 0.085 0.001 0.17 0.002 0.254v112.627c0 24.483-19.882 44.373-44.364 44.373h-389.12c-24.483 0-44.382-19.89-44.382-44.373v-389.12c0-24.483 19.899-44.373 44.382-44.373h112.631c0.072 0.001 0.156 0.002 0.241 0.002 9.427 0 17.068-7.642 17.068-17.068s-7.642-17.068-17.068-17.068c-0.085 0-0.17 0.001-0.254 0.002h-112.618c-43.101 0-78.516 35.406-78.516 78.507v389.12c0 43.101 35.414 78.507 78.516 78.507zM568.871 587.289c50.265 0 100.529-19.125 138.782-57.378 72.439-72.439 76.247-187.924 11.511-264.942l60.898-60.898c3.19-3.105 5.169-7.44 5.169-12.237 0-9.427-7.642-17.068-17.068-17.068-0.176 0-0.352 0.003-0.526 0.008-4.587 0.14-8.718 2.090-11.704 5.16l-60.902 60.902c-36.347-30.548-81.241-45.867-126.16-45.867-50.264 0-100.538 19.128-138.791 57.378-76.5 76.506-76.5 201.058 0 277.564 38.253 38.253 88.526 57.378 138.791 57.378zM568.871 553.378c-41.456 0-82.908-15.868-114.64-47.6-63.458-63.463-63.458-165.835 0-229.298 31.73-31.721 73.187-47.591 114.64-47.591 40.536 0 81.045 15.221 112.489 45.556 1.157 1.633 2.541 3.014 4.124 4.133 61.447 63.637 60.804 164.432-1.964 227.2-31.732 31.732-73.192 47.6-114.649 47.6zM524.844 506.613c0.203 0.009 0.442 0.014 0.682 0.014 9.427 0 17.068-7.642 17.068-17.068 0-7.048-4.272-13.098-10.368-15.703-9.965-4.419-19.185-10.636-27.311-18.762-8.865-8.865-15.472-19.034-19.884-29.911-2.548-6.422-8.707-10.88-15.907-10.88-0.001 0-0.003 0-0.004 0-9.417 0.012-17.046 7.649-17.046 17.068 0 2.394 0.493 4.673 1.383 6.74 6.046 14.897 15.2 28.989 27.326 41.116 11.114 11.114 23.868 19.733 37.476 25.778 1.926 0.928 4.177 1.511 6.553 1.608zM676.649 408.436c9.315-0.145 16.811-7.73 16.811-17.066 0-0.084-0.001-0.169-0.002-0.253 0-31.844-12.23-63.827-36.489-88.085-24.253-24.253-56.232-36.489-88.089-36.489-0.072-0.001-0.156-0.002-0.241-0.002-9.427 0-17.068 7.642-17.068 17.068s7.642 17.068 17.068 17.068c0.085 0 0.17-0.001 0.254-0.002 23.164 0 46.203 8.758 63.934 26.489 17.737 17.737 26.498 40.787 26.498 63.964-0.001 0.071-0.002 0.156-0.002 0.24 0 9.427 7.642 17.068 17.068 17.068 0.091 0 0.181-0.001 0.271-0.002z" />
<glyph unicode="&#xe91f;" glyph-name="close" d="M512 950.691c-276.945 0-502.691-225.745-502.691-502.691s225.745-502.691 502.691-502.691 502.691 225.745 502.691 502.691-225.745 502.691-502.691 502.691zM512-8.145c-251.345 0-456.145 204.8-456.145 456.145s204.8 456.145 456.145 456.145 456.145-204.8 456.145-456.145-204.8-456.145-456.145-456.145zM709.818 645.818c-9.309 9.309-23.273 9.309-32.582 0l-165.236-165.236-165.236 165.236c-9.309 9.309-23.273 9.309-32.582 0s-9.309-23.273 0-32.582l165.236-165.236-165.236-165.236c-9.309-9.309-9.309-23.273 0-32.582 4.655-4.655 11.636-6.982 16.291-6.982s11.636 2.327 16.291 6.982l165.236 165.236 165.236-165.236c4.655-4.655 11.636-6.982 16.291-6.982s11.636 2.327 16.291 6.982c9.309 9.309 9.309 23.273 0 32.582l-165.236 165.236 165.236 165.236c9.309 9.309 9.309 23.273 0 32.582z" />
<glyph unicode="&#xe920;" glyph-name="cooperators" d="M512 908.8c-254.726 0-460.8-206.074-460.8-460.8 0-25.714 2.162-51.412 6.44-77.080 1.486-9.978 9.994-17.546 20.271-17.546 11.312 0 20.482 9.17 20.482 20.482 0 1.338-0.128 2.646-0.373 3.913-3.893 23.355-5.859 46.793-5.859 70.231 0 232.698 187.142 419.84 419.84 419.84s419.84-187.142 419.84-419.84c0-232.698-187.142-419.84-419.84-419.84-144.541 0-273.437 74.315-347.52 185.44-3.703 5.684-10.028 9.389-17.218 9.389-11.312 0-20.482-9.17-20.482-20.482 0-4.347 1.354-8.378 3.664-11.694 81.521-122.28 222.993-203.613 381.556-203.613 254.726 0 460.8 206.074 460.8 460.8s-206.074 460.8-460.8 460.8zM307.2 388.6v-167.92c0-11.947 5.342-21.502 12.4-28.56s16.613-12.4 28.56-12.4h327.68c11.947 0 21.502 5.342 28.56 12.4s12.4 16.613 12.4 28.56v167.92h-40.96v-167.92h-327.68v167.92h-40.96zM333.84 673.28c-10.923 0-19.291-4.884-25.44-10.56s-10.687-12.549-12.88-21.32l-49.76-163.72v-9.2c0-56.227 46.173-102.4 102.4-102.4 34.261 0 63.296 18.244 81.92 44.36 18.624-26.116 47.659-44.36 81.92-44.36 34.087 0 62.991 18.068 81.64 43.96 18.073-25.791 46.185-43.96 80.16-43.96 55.506 0 100.837 45.114 102 100.36h0.4v11.24l-50.040 164.68 0.48-1.92c-3.799 18.994-20.088 32.84-38.52 32.84h-354.28zM335.96 632.32h350.52l0.201-0.92 48.56-159.8v-3.12c0-33.885-27.555-61.44-61.44-61.44s-59.401 26.934-59.401 61.44h-40.96c0-33.885-27.555-61.44-61.44-61.44s-61.44 27.555-61.44 61.44h-40.96c0-33.885-27.555-61.44-61.44-61.44s-61.44 27.555-61.44 61.44v3.12l48.56 159.84c-0.106-0.426 0.322 0.353 0.68 0.88zM147.44 222.72v-40.96h200.72v40.96h-200.72z" />
<glyph unicode="&#xe921;" glyph-name="creditCard" d="M512 908.8c-253.952 0-460.8-206.848-460.8-460.8 0-26.624 2.048-51.2 6.144-77.824 2.048-10.24 12.288-18.432 24.576-16.384 10.24 2.048 18.432 12.288 16.384 24.576-4.096 22.528-6.144 47.104-6.144 69.632 0 231.424 188.416 419.84 419.84 419.84s419.84-188.416 419.84-419.84-188.416-419.84-419.84-419.84c-126.976 0-243.712 57.344-323.584 153.6h532.48c26.624 0 49.152 22.528 49.152 49.152v313.344c0 26.624-22.528 49.152-49.152 49.152h-417.792c-26.624 0-49.152-22.528-49.152-49.152v-315.392c0-2.048 0-4.096 0-8.192h-106.496c-4.096 0-8.192 0-12.288-4.096-10.24-6.144-12.288-18.432-6.144-28.672 86.016-126.976 229.376-202.752 382.976-202.752 253.952 0 460.8 206.848 460.8 460.8s-206.848 462.848-460.8 462.848zM303.104 552.448h419.84c4.096 0 8.192-4.096 8.192-8.192v-75.776h-436.224v75.776c0 4.096 4.096 8.192 8.192 8.192zM294.912 228.864v198.656h434.176v-198.656c0-4.096-4.096-8.192-8.192-8.192h-417.792c-4.096 2.048-8.192 4.096-8.192 8.192zM460.8 259.584c2.048 0 4.096-2.048 8.192-2.048 8.192 0 16.384 4.096 18.432 12.288l26.624 65.536c4.096 10.24-2.048 22.528-12.288 26.624s-22.528-2.048-26.624-12.288l-26.624-65.536c-4.096-10.24 2.048-20.48 12.288-24.576zM542.72 259.584c2.048 0 4.096-2.048 8.192-2.048 8.192 0 16.384 4.096 18.432 12.288l26.624 65.536c4.096 10.24-2.048 22.528-12.288 26.624s-22.528-2.048-26.624-12.288l-26.624-65.536c-4.096-10.24 2.048-20.48 12.288-24.576zM628.736 259.584c2.048 0 4.096-2.048 8.192-2.048 8.192 0 16.384 4.096 18.432 12.288l26.624 65.536c4.096 10.24-2.048 22.528-12.288 26.624s-22.528-2.048-26.624-12.288l-26.624-65.536c-2.048-10.24 2.048-20.48 12.288-24.576z" />
<glyph unicode="&#xe922;" glyph-name="delete" d="M372.364 866.909c-0.147 0.002-0.32 0.003-0.494 0.003-19.282 0-34.913-15.631-34.913-34.913s15.631-34.913 34.913-34.913c0.174 0 0.347 0.001 0.52 0.004h279.247c0.147-0.002 0.32-0.003 0.494-0.003 19.282 0 34.913 15.631 34.913 34.913s-15.631 34.913-34.913 34.913c-0.174 0-0.347-0.001-0.52-0.004h-279.247zM430 599.773c-19.046-0.307-34.367-15.818-34.367-34.908 0-0.176 0.001-0.352 0.004-0.527v-372.337c-0.002-0.147-0.003-0.32-0.003-0.494 0-19.282 15.631-34.913 34.913-34.913s34.913 15.631 34.913 34.913c0 0.174-0.001 0.347-0.004 0.52v372.338c0.002 0.149 0.004 0.325 0.004 0.501 0 19.282-15.631 34.913-34.913 34.913-0.192 0-0.383-0.002-0.574-0.005zM616.182 599.773c-19.046-0.307-34.367-15.818-34.367-34.908 0-0.176 0.001-0.352 0.004-0.527v-372.337c-0.002-0.147-0.003-0.32-0.003-0.494 0-19.282 15.631-34.913 34.913-34.913s34.913 15.631 34.913 34.913c0 0.174-0.001 0.347-0.004 0.52v372.338c0.002 0.149 0.004 0.325 0.004 0.501 0 19.282-15.631 34.913-34.913 34.913-0.192 0-0.383-0.002-0.574-0.005zM162.909 750.545c-0.147 0.002-0.32 0.003-0.494 0.003-19.282 0-34.913-15.631-34.913-34.913s15.631-34.913 34.913-34.913c0.174 0 0.347 0.001 0.52 0.004h698.156c0.147-0.002 0.32-0.003 0.494-0.003 19.282 0 34.913 15.631 34.913 34.913s-15.631 34.913-34.913 34.913c-0.174 0-0.347-0.001-0.52-0.004h-698.156zM220.545 634.682c-19.046-0.307-34.367-15.818-34.367-34.908 0-0.176 0.001-0.352 0.004-0.527v-477.064c0-57.6 49.685-102.409 107.045-102.409h437.545c57.36 0 107.045 44.809 107.045 102.409v477.091c0.002 0.147 0.003 0.32 0.003 0.494 0 19.282-15.631 34.913-34.913 34.913s-34.913-15.631-34.913-34.913c0-0.174 0.001-0.347 0.004-0.52v-477.065c0-16.873-15.46-32.591-37.227-32.591h-437.545c-21.767 0-37.227 15.718-37.227 32.591v477.091c0.002 0.149 0.004 0.325 0.004 0.501 0 19.282-15.631 34.913-34.913 34.913-0.192 0-0.383-0.002-0.574-0.005z" />
<glyph unicode="&#xe923;" glyph-name="discount" d="M806.4 853.333c-59.733 0-106.667-46.933-106.667-106.667s46.933-106.667 106.667-106.667 106.667 46.933 106.667 106.667c-4.267 55.467-46.933 106.667-106.667 106.667v0zM806.4 691.2c-29.867 0-55.467 25.6-55.467 55.467s25.6 55.467 55.467 55.467 55.467-25.6 55.467-55.467-25.6-55.467-55.467-55.467v0zM908.8 960h-302.933c-29.867 0-55.467-12.8-76.8-34.133l-499.2-503.467c-42.667-42.667-42.667-110.933 0-153.6l302.933-302.933c21.333-21.333 46.933-29.867 76.8-29.867 25.6 0 55.467 12.8 76.8 34.133l503.467 503.467c17.067 21.333 34.133 46.933 34.133 76.8v302.933c-8.533 55.467-55.467 106.667-115.2 106.667v0zM964.267 550.4c0-12.8-4.267-25.6-17.067-38.4l-503.467-503.467c-12.8-12.8-25.6-17.067-38.4-17.067s-25.6 4.267-38.4 17.067l-302.933 302.933c-8.533 12.8-12.8 25.6-12.8 38.4s4.267 25.6 17.067 38.4l503.467 503.467c8.533 12.8 25.6 17.067 38.4 17.067h302.933c29.867 0 55.467-25.6 55.467-55.467l-4.267-302.933z" />
<glyph unicode="&#xe924;" glyph-name="down" d="M511.318 226.909c-12.604 0.194-23.963 5.368-32.227 13.636l-349.091 349.091c-8.827 8.485-14.31 20.391-14.31 33.578 0 25.709 20.841 46.55 46.55 46.55 13.187 0 25.094-5.484 33.564-14.295l316.196-316.197 316.182 316.182c8.485 8.827 20.391 14.311 33.579 14.311 25.709 0 46.55-20.841 46.55-46.55 0-13.187-5.484-25.094-14.295-33.564l-349.106-349.106c-8.425-8.428-20.065-13.641-32.923-13.641-0.235 0-0.469 0.002-0.703 0.005z" />
<glyph unicode="&#xe925;" glyph-name="edit" d="M842.464-54.688h-674.912c-90.752 0-165.248 74.464-165.248 165.248v674.912c0 90.752 74.464 165.248 165.248 165.248h537.6l9.312-2.336c18.624-2.336 32.576-20.96 30.24-39.552s-20.96-32.576-39.552-30.24h-537.6c-51.2 0-93.088-41.888-93.088-93.088v-672.576c0-51.2 41.888-95.424 95.424-95.424h672.576c51.2 0 95.424 41.888 95.424 95.424v551.552c0 20.96 16.288 34.912 34.912 34.912 20.96 0 34.912-16.288 34.912-34.912v-551.552c0-93.088-74.464-167.552-165.248-167.552zM281.6 175.712c-9.312 0-18.624 4.64-25.6 11.648-13.952 13.952-13.952 37.248 0 51.2l705.152 702.848c13.952 13.952 37.248 13.952 51.2 0s13.952-37.248 0-51.2l-705.152-705.152c-6.976-6.976-16.288-9.312-25.6-9.312z" />
<glyph unicode="&#xe926;" glyph-name="encrypt" d="M204.8-64c-56.165 0-102.4 46.235-102.4 102.4v409.6c0 56.165 46.235 102.4 102.4 102.4h614.4c56.165 0 102.4-46.235 102.4-102.4v-409.6c0-56.165-46.235-102.4-102.4-102.4h-614.4zM204.8 4.267h614.4c18.928 0 34.133 15.205 34.133 34.133v409.6c0 18.928-15.205 34.133-34.133 34.133h-614.4c-18.928 0-34.133-15.205-34.133-34.133v-409.6c0-18.928 15.205-34.133 34.133-34.133zM454.4 348.798c0-38.4 38.4-102.4 38.4-147.183 0-38.4-25.6-51.2-25.6-76.8 0-19.217 19.183-38.4 44.783-38.4 25.634 0 44.817 19.183 44.817 38.4 0 25.6-25.6 38.4-25.6 76.8 0 44.783 38.4 108.783 38.4 147.183 0 31.983-25.6 51.2-57.617 51.2-31.983 0-57.583-19.217-57.583-51.2zM204.8 516.267v148.933c0 162.865 139.243 294.8 307.2 294.8s307.2-131.935 307.2-294.8v-148.933h-68.267v148.933c0 123.855-106.517 226.533-238.933 226.533s-238.933-102.678-238.933-226.533v-148.933h-68.267z" />
<glyph unicode="&#xe927;" glyph-name="extractCash" d="M262.982 578.327h79.127l2.327 32.582h-41.891c-9.309 0-16.291 6.982-16.291 16.291s6.982 16.291 16.291 16.291h414.255c9.309 0 16.291-6.982 16.291-16.291s-6.982-16.291-16.291-16.291h-41.891l2.327-32.582h79.127v97.745h-493.382v-97.745zM381.673 610.909l-37.236-367.709c0-11.636 9.309-20.945 23.273-20.945h293.236c11.636 0 23.273 9.309 23.273 20.945l-41.891 367.709h-260.655zM605.091 347.927h-76.8v-53.527c0-9.309-6.982-16.291-16.291-16.291s-16.291 6.982-16.291 16.291v53.527h-76.8c-9.309 0-16.291 6.982-16.291 16.291s6.982 16.291 16.291 16.291h76.8v20.945h-62.836c-9.309 0-16.291 6.982-16.291 16.291s6.982 16.291 16.291 16.291h46.545l-37.236 62.836c-4.655 6.982-2.327 18.618 6.982 23.273 6.982 4.655 18.618 2.327 23.273-6.982l39.564-65.164 39.564 67.491c4.655 6.982 16.291 11.636 23.273 6.982s11.636-16.291 6.982-23.273l-37.236-60.509h46.545c9.309 0 16.291-6.982 16.291-16.291s-6.982-20.945-16.291-20.945h-62.836v-20.945h76.8c9.309 0 16.291-6.982 16.291-16.291s-6.982-16.291-16.291-16.291zM512 960c-281.6 0-512-230.4-512-512s228.073-512 512-512c281.6 0 512 228.073 512 512s-230.4 512-512 512zM793.6 573.673c0-16.291-13.964-30.255-30.255-30.255h-81.455l30.255-300.218c0 0 0-2.327 0-2.327 0-30.255-25.6-55.855-55.855-55.855h-290.909c-30.255 0-55.855 25.6-55.855 55.855 0 0 0 2.327 0 2.327l30.255 300.218h-81.455c-16.291 0-30.255 13.964-30.255 30.255v107.055c0 16.291 13.964 30.255 30.255 30.255h507.345c16.291 0 30.255-13.964 30.255-30.255v-107.055z" />
<glyph unicode="&#xe928;" glyph-name="face-scan" d="M512 960c-282.767 0-512-229.233-512-512s229.233-512 512-512c282.767 0 512 229.233 512 512s-229.233 512-512 512zM266.24 734.72h75.093v-27.307h-75.093c-7.571 0-13.653-6.082-13.653-13.653v-75.093h-27.307v75.093c0 22.466 18.494 40.96 40.96 40.96zM682.667 734.72h75.093c22.466 0 40.96-18.494 40.96-40.96v-75.093h-27.307v75.093c0 7.571-6.082 13.653-13.653 13.653h-75.093v27.307zM512 632.32c67.7 0 122.88-55.18 122.88-122.88 0-45.124-24.526-84.659-60.917-106.027 57.508-20.054 102.355-67.245 119.040-126.315l-26.283-7.413c-19.053 67.454-80.922 116.864-154.709 116.864-73.801 0-135.673-49.413-154.72-116.875l-26.261 7.413c16.68 59.075 61.507 106.269 119.019 126.325-36.396 21.366-60.928 60.9-60.928 106.027 0 67.699 55.174 122.88 122.88 122.88zM512 605.013c-52.948 0-95.573-42.632-95.573-95.573 0-52.949 42.624-95.573 95.573-95.573 52.942 0 95.573 42.625 95.573 95.573 0 52.941-42.633 95.573-95.573 95.573zM225.28 277.333h27.307v-75.093c0-7.571 6.082-13.653 13.653-13.653h75.093v-27.307h-75.093c-22.466 0-40.96 18.494-40.96 40.96v75.093zM771.413 277.333h27.307v-75.093c0-22.466-18.494-40.96-40.96-40.96h-75.093v27.307h75.093c7.571 0 13.653 6.082 13.653 13.653v75.093z" />
<glyph unicode="&#xe929;" glyph-name="failed" d="M510.542 960c-282.772 0-512-229.228-512-512s229.228-512 512-512c282.772 0 512 229.228 512 512s-229.228 512-512 512zM315.982 721.067h389.12c43.101 0 78.507-35.406 78.507-78.507v-112.64c0.001-0.072 0.002-0.156 0.002-0.241 0-9.427-7.642-17.068-17.068-17.068s-17.068 7.642-17.068 17.068c0 0.085 0.001 0.17 0.002 0.254v112.627c0 24.483-19.89 44.373-44.373 44.373h-389.12c-24.483 0-44.373-19.89-44.373-44.373v-389.12c0-24.483 19.89-44.373 44.373-44.373h112.631c0.072 0.001 0.156 0.002 0.241 0.002 9.427 0 17.068-7.642 17.068-17.068s-7.642-17.068-17.068-17.068c-0.085 0-0.17 0.001-0.254 0.002h-112.618c-43.101 0-78.507 35.406-78.507 78.507v389.12c0 43.101 35.406 78.507 78.507 78.507zM356.942 608.427h307.2c0.072 0.001 0.156 0.002 0.241 0.002 9.427 0 17.068-7.642 17.068-17.068s-7.642-17.068-17.068-17.068c-0.085 0-0.17 0.001-0.254 0.002h-307.187c-0.072-0.001-0.156-0.002-0.241-0.002-9.427 0-17.068 7.642-17.068 17.068s7.642 17.068 17.068 17.068c0.085 0 0.17-0.001 0.254-0.002zM597.582 557.227c108.193 0 196.267-88.074 196.267-196.267s-88.074-196.267-196.267-196.267c-82.255 0-152.837 50.929-181.973 122.88h-59.236c-0.072-0.001-0.156-0.002-0.241-0.002-9.427 0-17.068 7.642-17.068 17.068s7.642 17.068 17.068 17.068c0.085 0 0.17-0.001 0.254-0.002h48.885c-2.588 12.689-3.956 25.813-3.956 39.253 0 24.642 4.616 48.221 12.951 69.973h-57.324c-0.072-0.001-0.156-0.002-0.241-0.002-9.427 0-17.068 7.642-17.068 17.068s7.642 17.068 17.068 17.068c0.085 0 0.17-0.001 0.254-0.002h66.467c0.060 0.001 0.13 0.001 0.201 0.001 2.46 0 4.799-0.521 6.912-1.458 34.484 56.129 96.475 93.616 167.047 93.616zM597.582 523.093c-89.746 0-162.133-72.387-162.133-162.133s72.387-162.133 162.133-162.133c89.746 0 162.133 72.387 162.133 162.133s-72.387 162.133-162.133 162.133zM525.333 450.676c4.688-0.114 8.891-2.101 11.906-5.239l60.343-60.343 60.347 60.338c3.089 3.212 7.414 5.216 12.208 5.244 0.034 0 0.068 0 0.101 0 9.427 0 17.068-7.642 17.068-17.068 0-4.834-2.010-9.199-5.239-12.304l-60.343-60.343 60.347-60.338c3.19-3.105 5.17-7.44 5.17-12.237 0-9.427-7.642-17.068-17.068-17.068-0.183 0-0.364 0.003-0.546 0.009-4.585 0.138-8.716 2.085-11.703 5.151l-60.341 60.341-60.329-60.338c-3.105-3.193-7.442-5.173-12.241-5.173-0.006 0-0.012 0-0.018 0-0.001 0-0.002 0-0.004 0-9.427 0-17.068 7.642-17.068 17.068 0 4.802 1.983 9.142 5.176 12.243l60.351 60.342-60.338 60.338c-3.238 3.111-5.249 7.478-5.249 12.314 0 9.427 7.642 17.068 17.068 17.068 0.142 0 0.283-0.002 0.424-0.005z" />
<glyph unicode="&#xe92a;" glyph-name="faq" d="M512 890.182c244.364 0 442.182-197.818 442.182-442.182 0-76.8-18.618-146.618-53.527-209.455-13.964-34.909-44.218-128 25.6-209.455 0 0-62.836 18.618-144.291 18.618-39.564 0-81.455-4.655-125.673-13.964v0c-46.545-16.291-95.418-25.6-146.618-25.6-242.036-2.327-439.855 195.491-439.855 439.855s197.818 442.182 442.182 442.182zM512 936.727c-269.964 0-488.727-218.764-488.727-488.727s218.764-488.727 488.727-488.727c55.855 0 109.382 9.309 162.909 27.927 0 0 2.327 0 2.327 0 32.582 6.982 67.491 11.636 104.727 11.636 74.473 0 132.655-16.291 132.655-16.291 4.655-2.327 9.309-2.327 11.636-2.327 16.291 0 30.255 6.982 39.564 20.945 11.636 16.291 9.309 39.564-4.655 55.855-48.873 58.182-34.909 123.345-20.945 158.255 37.236 69.818 58.182 148.945 58.182 230.4 2.327 272.291-216.436 491.055-486.4 491.055v0zM514.327 282.764c-11.636 0-20.945 9.309-20.945 20.945v34.909c0 37.236 30.255 67.491 60.509 97.745 32.582 32.582 67.491 67.491 67.491 111.709 0 58.182-48.873 107.055-107.055 107.055s-107.055-48.873-107.055-107.055c0-11.636-9.309-20.945-20.945-20.945s-20.945 9.309-20.945 20.945c0 83.782 67.491 151.273 151.273 151.273s151.273-67.491 151.273-151.273c0-62.836-44.218-107.055-81.455-141.964-25.6-23.273-48.873-46.545-48.873-67.491v-34.909c-2.327-9.309-11.636-20.945-23.273-20.945v0zM535.273 224.582c0-11.636-9.309-23.273-23.273-23.273-11.636 0-23.273 9.309-23.273 23.273 0 11.636 9.309 23.273 23.273 23.273s23.273-11.636 23.273-23.273v0z" />
<glyph unicode="&#xe92b;" glyph-name="forward" d="M336.955 51.909c-25.684 0.033-46.492 20.861-46.492 46.55 0 13.076 5.392 24.893 14.073 33.349l316.192 316.192-316.182 316.182c-8.827 8.485-14.311 20.391-14.311 33.579 0 25.709 20.841 46.55 46.55 46.55 13.187 0 25.094-5.484 33.564-14.295l349.106-349.106c8.42-8.423 13.627-20.058 13.627-32.909s-5.208-24.486-13.628-32.909l-349.091-349.091c-8.466-8.696-20.286-14.091-33.366-14.091-0.015 0-0.030 0-0.045 0z" />
<glyph unicode="&#xe92c;" glyph-name="gift" d="M281.6 748.218c-6.982 0-11.636 2.327-16.291 6.982l-9.309 9.309c-39.564 39.564-39.564 107.055 0 146.618s107.055 39.564 146.618 0l123.345-123.345c9.309-9.309 9.309-23.273 0-32.582s-23.273-9.309-32.582 0l-123.345 123.345c-23.273 23.273-58.182 23.273-81.455 0s-23.273-58.182 0-81.455l9.309-9.309c9.309-9.309 9.309-23.273 0-32.582-4.655-4.655-11.636-6.982-16.291-6.982zM516.655 748.218c-6.982 0-11.636 2.327-16.291 6.982-9.309 9.309-9.309 23.273 0 32.582l123.345 123.345c39.564 39.564 107.055 39.564 146.618 0s39.564-107.055 0-146.618l-9.309-9.309c-9.309-9.309-23.273-9.309-32.582 0s-9.309 23.273 0 32.582l9.309 9.309c23.273 23.273 23.273 58.182 0 81.455s-58.182 23.273-81.455 0l-123.345-123.345c-4.655-4.655-11.636-6.982-16.291-6.982zM816.873-45.382h-612.073c-46.545 0-83.782 44.218-83.782 100.073v512h46.545v-512c0-27.927 18.618-53.527 37.236-53.527h612.073c20.945 0 37.236 23.273 37.236 53.527v512h46.545v-512c2.327-55.855-34.909-100.073-83.782-100.073zM923.927 543.418h-823.855c-41.891 0-76.8 34.909-76.8 76.8v88.436c0 41.891 34.909 76.8 76.8 76.8h823.855c41.891 0 76.8-34.909 76.8-76.8v-88.436c0-44.218-34.909-76.8-76.8-76.8zM100.073 738.909c-16.291 0-30.255-13.964-30.255-30.255v-88.436c0-16.291 13.964-30.255 30.255-30.255h823.855c16.291 0 30.255 13.964 30.255 30.255v88.436c0 16.291-13.964 30.255-30.255 30.255h-823.855zM484.073 140.8c-6.982 0-11.636 2.327-16.291 6.982-9.309 9.309-9.309 23.273 0 32.582l232.727 232.727c9.309 9.309 23.273 9.309 32.582 0s9.309-23.273 0-32.582l-232.727-232.727c-4.655-4.655-11.636-6.982-16.291-6.982zM484.073 140.8c-6.982 0-11.636 2.327-16.291 6.982l-130.327 130.327c-9.309 9.309-9.309 23.273 0 32.582s23.273 9.309 32.582 0l130.327-130.327c9.309-9.309 9.309-23.273 0-32.582-4.655-4.655-11.636-6.982-16.291-6.982z" />
<glyph unicode="&#xe92d;" glyph-name="goback" d="M686.545 832c9.309 0 18.618-2.327 25.6-9.309 13.964-13.964 13.964-34.909 0-48.873l-325.818-325.818 323.491-323.491c13.964-13.964 13.964-34.909 0-48.873s-34.909-13.964-48.873 0l-349.091 349.091c-13.964 13.964-13.964 34.909 0 48.873l349.091 349.091c6.982 6.982 16.291 9.309 25.6 9.309z" />
<glyph unicode="&#xe92e;" glyph-name="history" d="M512 777.956c-182.044 0-329.956-147.911-329.956-329.956s147.911-329.956 329.956-329.956c182.044 0 329.956 147.911 329.956 329.956s-147.911 329.956-329.956 329.956zM547.84 440.604c0-18.204-14.791-32.996-32.996-32.996h-197.973c-18.204 0-32.996 14.791-32.996 32.996s14.791 32.996 32.996 32.996h164.978v164.978c0 18.204 14.791 32.996 32.996 32.996s32.996-14.791 32.996-32.996v-197.973zM512 960c-282.738 0-512-229.262-512-512s229.262-512 512-512 512 229.262 512 512-229.262 512-512 512zM512 52.053c-218.453 0-395.947 177.493-395.947 395.947s177.493 395.947 395.947 395.947c218.453 0 395.947-177.493 395.947-395.947 0-219.022-177.493-395.947-395.947-395.947z" />
<glyph unicode="&#xe92f;" glyph-name="info" d="M568.606 293.86c-3.119-1.652-6.167-3.491-9.1-5.469-8.192-5.446-16.035-11.473-24.553-16.361-4.608-2.607-10.24-4.049-15.546-4.678-6.307-0.745-11.66 7.191-10.356 12.893 5.795 25.391 11.59 50.804 18.106 76.032 11.264 43.613 23.156 87.063 34.583 130.653 2.746 10.496 3.351 21.271 1.14 32-1.699 8.332-5.329 15.523-13.871 18.688-6.959 2.56-14.289 2.188-20.783-0.908-11.427-5.446-23.156-10.822-33.513-18.013-24.367-16.966-47.988-34.979-71.889-52.596-5.795-4.282-11.473-8.681-17.617-13.359 2.397-4.096 4.492-7.983 6.889-11.683 1.583-2.42 5.702-2.746 7.913-1.14 6.842 4.864 13.428 10.17 20.666 14.383 8.332 4.864 17.082 9.123 25.949 12.963 5.772 2.49 12.753-0.465 13.242-5.027 0.442-4.003 0.605-8.285-0.326-12.125-8.797-36.701-18.083-73.263-26.764-109.987-6.656-28.137-12.986-56.413-18.711-84.759-2.374-11.753 1.001-22.831 8.588-32.465 7.983-10.147 22.551-14.127 34.351-9.030 22.039 9.495 42.24 22.272 62.185 35.444 14.569 9.612 28.858 19.665 43.729 29.812-2.001 4.305-3.631 8.192-5.562 11.869-1.978 3.793-5.073 4.794-8.751 2.863zM567.696 683.001c-8.215 1.955-16.477 2.048-24.297-1.466-19.828-8.913-27.671-25.553-29.44-44.404 0.303-10.31 2.281-18.362 7.703-25.204 7.959-9.961 18.385-13.894 31.092-13.219 10.868 0.582 20.038 4.98 27.392 12.195 14.452 14.103 19.293 31.069 12.055 50.595-4.305 11.567-12.614 18.665-24.506 21.504zM512 64c-211.659 0-384 172.341-384 384s172.341 384 384 384c211.659 0 384-172.341 384-384s-172.341-384-384-384zM512 133.818c173.924 0 314.182 140.258 314.182 314.182s-140.258 314.182-314.182 314.182c-173.924 0-314.182-140.258-314.182-314.182s140.258-314.182 314.182-314.182z" />
<glyph unicode="&#xe930;" glyph-name="loading" horiz-adv-x="1022" d="M511.147 969.514l-521.622-521.526 521.622-521.526 521.718 521.526-319.074 318.957zM511.147 899.938l452.047-451.951-452.047-451.951-452.047 451.951z" />
<glyph unicode="&#xe931;" glyph-name="loadingCircle" d="M512-64c-282.778 0-512 229.222-512 512 0 265.498 202.086 483.712 460.8 509.414v-25.754c-244.557-25.6-435.2-232.32-435.2-483.661 0-268.621 217.779-486.4 486.4-486.4s486.4 217.779 486.4 486.4c0 251.341-190.643 458.061-435.2 483.661v25.754c258.714-25.702 460.8-243.942 460.8-509.414 0-282.778-229.222-512-512-512z" />
<glyph unicode="&#xe932;" glyph-name="message" d="M958.836 818.036c-2.327 0-4.655 2.327-6.982 4.655s-6.982 4.655-9.309 4.655c-2.327 2.327-4.655 2.327-9.309 4.655-2.327 2.327-6.982 2.327-9.309 4.655-4.655 2.327-6.982 2.327-11.636 4.655-2.327 0-4.655 2.327-6.982 2.327-6.982 0-13.964 0-20.945 0h-744.727c-6.982 0-13.964 0-20.945-2.327-4.655 0-9.309-2.327-13.964-4.655h-2.327c-46.545-13.964-79.127-55.855-79.127-109.382v-558.545c0-65.164 51.2-116.364 116.364-116.364h744.727c65.164 0 116.364 51.2 116.364 116.364v558.545c0 37.236-16.291 69.818-41.891 90.764zM884.364 797.091c4.655 0 6.982 0 11.636 0 23.273-4.655 46.545-23.273 53.527-48.873 11.636-27.927 0-58.182-23.273-76.8l-372.364-279.273c-23.273-18.618-60.509-18.618-83.782 0l-372.364 279.273c-23.273 16.291-32.582 48.873-23.273 76.8 6.982 23.273 23.273 37.236 41.891 44.218 2.327 0 2.327 0 4.655 2.327 2.327 0 4.655 0 6.982 2.327 2.327 0 6.982 0 11.636 0 0 0 744.727 0 744.727 0zM954.182 168.727c0-39.564-30.255-69.818-69.818-69.818h-744.727c-39.564 0-69.818 30.255-69.818 69.818v465.455l372.364-279.273c20.945-16.291 44.218-23.273 69.818-23.273s48.873 6.982 69.818 23.273l372.364 279.273v-465.455z" />
<glyph unicode="&#xe933;" glyph-name="message-empty" d="M737.745 659.782h-451.491c-9.309 0-16.291-9.309-16.291-18.618v-353.745c0-9.309 6.982-9.309 16.291-9.309h209.455c37.236 0 86.109-23.273 114.036-51.2l11.636-13.964c11.636 34.909 44.218 65.164 83.782 65.164h34.909c9.309 0 16.291 0 16.291 9.309v353.745c0 9.309-9.309 18.618-18.618 18.618zM356.073 569.018h174.545c9.309 0 16.291-6.982 16.291-18.618 0-9.309-6.982-18.618-16.291-18.618h-174.545c-9.309 0-16.291 6.982-16.291 18.618-2.327 9.309 6.982 18.618 16.291 18.618zM651.636 368.873h-295.564c-9.309 0-16.291 6.982-16.291 18.618 0 9.309 6.982 18.618 16.291 18.618h295.564c9.309 0 16.291-6.982 16.291-18.618s-6.982-18.618-16.291-18.618zM651.636 441.018h-295.564c-9.309 0-16.291 6.982-16.291 18.618 0 9.309 6.982 18.618 16.291 18.618h295.564c9.309 0 16.291-6.982 16.291-18.618s-6.982-18.618-16.291-18.618zM512 950.691c-276.945 0-502.691-225.745-502.691-502.691s225.745-502.691 502.691-502.691 502.691 225.745 502.691 502.691-225.745 502.691-502.691 502.691zM791.273 287.418c0-30.255-23.273-44.218-51.2-44.218h-34.909c-27.927 0-51.2-27.927-51.2-58.182 0-18.618-6.982-32.582-16.291-32.582-6.982 0-13.964 4.655-20.945 13.964l-30.255 34.909c-20.945 20.945-60.509 44.218-88.436 44.218h-209.455c-27.927 0-51.2 16.291-51.2 44.218v351.418c0 30.255 23.273 53.527 51.2 53.527h453.818c27.927 0 51.2-25.6 51.2-53.527v-353.745z" />
<glyph unicode="&#xe934;" glyph-name="minus" d="M512.149 75.636c-205.37 0-372.364 166.994-372.364 372.364s166.994 372.364 372.364 372.364c205.37 0 372.364-166.994 372.364-372.364s-166.994-372.364-372.364-372.364zM512.149 122.182c180.213 0 325.818 145.605 325.818 325.818s-145.605 325.818-325.818 325.818c-180.213 0-325.818-145.605-325.818-325.818s145.605-325.818 325.818-325.818zM302.694 424.727c-0.098-0.001-0.213-0.002-0.329-0.002-12.854 0-23.275 10.421-23.275 23.275s10.421 23.275 23.275 23.275c0.116 0 0.231-0.001 0.347-0.003h418.892c0.098 0.001 0.213 0.002 0.329 0.002 12.854 0 23.275-10.421 23.275-23.275s-10.421-23.275-23.275-23.275c-0.116 0-0.231 0.001-0.347 0.003h-418.892z" />
<glyph unicode="&#xe935;" glyph-name="more" d="M162.909 913.455c-63.894 0-116.364-52.469-116.364-116.364v-698.182c0-63.894 52.469-116.364 116.364-116.364h698.182c63.894 0 116.364 52.469 116.364 116.364v698.182c0 63.894-52.469 116.364-116.364 116.364h-698.182zM162.909 866.909h698.182c38.506 0 69.818-31.312 69.818-69.818v-698.182c0-38.506-31.312-69.818-69.818-69.818h-698.182c-38.506 0-69.818 31.312-69.818 69.818v698.182c0 38.506 31.312 69.818 69.818 69.818zM279.273 727.273c-12.154 0-24.544-4.453-33.318-13.227s-13.227-21.165-13.227-33.318v-139.636c0-24.048 19.653-46.545 46.545-46.545h139.636c13.576 0 24.434 6.070 32.455 14.091s14.091 18.879 14.091 32.455v139.636c0 26.893-22.497 46.545-46.545 46.545h-139.636zM279.273 680.727h139.636v-139.636h-139.636v139.636zM605.091 727.273c-24.048 0-46.545-19.653-46.545-46.545v-139.636c0-13.576 6.070-24.434 14.091-32.455s18.879-14.091 32.455-14.091h139.636c13.576 0 24.434 6.070 32.455 14.091s14.091 18.879 14.091 32.455v139.636c0 26.893-22.497 46.545-46.545 46.545h-139.636zM605.091 680.727h139.636v-139.636h-139.636v139.636zM279.273 401.455c-26.893 0-46.545-22.497-46.545-46.545v-139.636c0-24.048 19.653-46.545 46.545-46.545h139.636c13.576 0 24.434 6.070 32.455 14.091s14.091 18.879 14.091 32.455v139.636c0 13.576-6.070 24.434-14.091 32.455s-18.879 14.091-32.455 14.091h-139.636zM279.273 354.909h139.636v-139.636h-139.636v139.636zM605.091 401.455c-13.576 0-24.434-6.070-32.455-14.091s-14.091-18.879-14.091-32.455v-139.636c0-13.576 6.070-24.434 14.091-32.455s18.879-14.091 32.455-14.091h139.636c13.576 0 24.434 6.070 32.455 14.091s14.091 18.879 14.091 32.455v139.636c0 13.576-6.070 24.434-14.091 32.455s-18.879 14.091-32.455 14.091h-139.636zM605.091 354.909h139.636v-139.636h-139.636v139.636z" />
<glyph unicode="&#xe936;" glyph-name="next" d="M337.455 64c-9.309 0-18.618 2.327-25.6 9.309-13.964 13.964-13.964 34.909 0 48.873l325.818 325.818-325.818 323.491c-13.964 13.964-13.964 34.909 0 48.873s34.909 13.964 48.873 0l349.091-349.091c13.964-13.964 13.964-34.909 0-48.873l-349.091-349.091c-4.655-6.982-13.964-9.309-23.273-9.309z" />
<glyph unicode="&#xe937;" glyph-name="notice" d="M824.728 459.306c0 93.398-48.36 173.453-119.288 216.816-3.224 3.336-9.672 6.671-16.12 6.671-16.12 0-29.016-13.343-29.016-30.021 0-10.007 6.448-20.014 12.896-26.685 54.808-33.356 93.496-93.398 93.496-166.782s-38.688-133.425-96.72-166.782c-9.672-6.671-12.896-13.343-12.896-26.685 0-16.678 12.896-30.021 29.016-30.021 6.448 0 16.12 3.336 16.12 3.336 70.928 43.363 122.512 126.754 122.512 220.152v0zM792.488 829.561c-6.448 3.336-9.672 6.671-16.12 6.671-16.12 0-29.016-13.343-29.016-30.021 0-13.343 6.448-20.014 16.12-26.685 106.392-63.377 177.32-183.46 177.32-316.885 0-136.761-70.928-253.508-177.32-316.885-9.672-6.671-16.12-16.678-16.12-26.685 0-16.678 12.896-30.021 29.016-30.021 6.448 0 12.896 3.336 16.12 6.671 119.288 70.048 203.112 206.809 203.112 363.584s-80.6 293.535-203.112 370.255v0zM102.553 666.115h141.856c19.344 0 48.36 6.671 177.32 103.405 22.568 16.678 45.136 33.356 64.48 50.034 0 0 0-390.269 0-390.269 0-16.678 12.896-30.021 29.016-30.021s29.016 13.343 29.016 30.021c0 3.336 0 443.639 0 443.639 0 13.343-6.448 26.685-19.344 33.356s-25.792 3.336-35.464-3.336c0 0-51.584-43.363-109.616-86.726-99.944-76.72-125.736-86.726-132.184-90.062h-125.736c0 0 0 0-3.224 0h-64.48c-12.896 0-25.792-13.343-25.792-30.021v-476.995c0-13.343 12.896-26.685 29.016-26.685h212.784c6.448-3.336 32.24-16.678 119.288-90.062 51.584-43.363 96.72-83.391 96.72-86.726 6.448-6.671 16.12-10.007 22.568-10.007s9.672 0 12.896 3.336c12.896 6.671 19.344 20.014 19.344 33.356 0 0 0 166.782 0 166.782s0 0 0 0v0 0c0 16.678-12.896 26.685-29.016 26.685s-29.016-13.343-29.016-30.021c0-3.336 0-110.076 0-110.076-16.12 13.343-32.24 30.021-51.584 43.363-116.064 96.733-145.080 106.74-164.424 106.74 0 0 0 0 0 0s0 0 0 0h-157.976c-19.344 0-25.792 6.671-25.792 26.685v370.255c3.224 13.343 3.224 23.349 19.344 23.349v0z" />
<glyph unicode="&#xe938;" glyph-name="opi" d="M567.855 722.618c0 4.655-2.327 6.982-4.655 6.982h-102.4c-2.327 0-4.655-2.327-4.655-4.655l-2.327-69.818h116.364l-2.327 67.491zM658.618 617.891h-293.236c-27.927 0-48.873-20.945-48.873-48.873l-9.309-353.745c0-25.6 20.945-48.873 48.873-48.873h311.855c27.927 0 48.873 20.945 48.873 48.873l-9.309 353.745c0 27.927-23.273 48.873-48.873 48.873zM379.345 217.6c0-6.982-6.982-13.964-13.964-13.964 0 0 0 0 0 0-6.982 0-13.964 6.982-13.964 13.964l9.309 165.236c0 6.982 6.982 13.964 13.964 13.964s13.964-6.982 13.964-13.964l-9.309-165.236zM388.655 424.727c0-6.982-6.982-13.964-13.964-13.964 0 0 0 0 0 0-6.982 0-13.964 6.982-13.964 13.964v13.964c0 6.982 6.982 13.964 13.964 13.964s13.964-6.982 13.964-13.964v-13.964zM512 960c-283.927 0-512-228.073-512-512s228.073-512 512-512c283.927 0 512 228.073 512 512s-228.073 512-512 512zM667.927 133.818h-311.855c-46.545 0-83.782 37.236-83.782 83.782l9.309 353.745c0 44.218 37.236 81.455 83.782 81.455h53.527l2.327 69.818c0 20.945 18.618 39.564 39.564 39.564h102.4c20.945 0 39.564-18.618 39.564-39.564l2.327-69.818h53.527c46.545 0 83.782-37.236 83.782-83.782l9.309-353.745c0-44.218-37.236-81.455-83.782-81.455z" />
<glyph unicode="&#xe939;" glyph-name="outline" d="M512 864c-229.8 0-416-186.2-416-416s186.2-416 416-416c229.8 0 416 186.2 416 416s-186.2 416-416 416zM512 66.6c-210.2 0-381.4 171-381.4 381.4 0 210.2 171 381.4 381.4 381.4 210.2 0 381.4-171 381.4-381.4 0-210.2-171.2-381.4-381.4-381.4z" />
<glyph unicode="&#xe93a;" glyph-name="password" d="M761.018 212.945c0-137.309-111.709-249.018-249.018-249.018s-249.018 111.709-249.018 249.018c0 123.345 90.764 225.745 209.455 246.691v446.836c0 13.964 11.636 25.6 25.6 25.6s25.6-11.636 25.6-25.6v-53.527h130.327c13.964 0 25.6-11.636 25.6-25.6s-11.636-25.6-25.6-25.6h-130.327v-79.127h130.327c13.964 0 25.6-11.636 25.6-25.6s-11.636-25.6-25.6-25.6h-130.327v-209.455c132.655-9.309 237.382-116.364 237.382-249.018v0zM316.509 212.945c0-109.382 88.436-195.491 195.491-195.491 109.382 0 195.491 88.436 195.491 195.491 0 109.382-88.436 195.491-195.491 195.491-109.382 0-195.491-88.436-195.491-195.491v0z" />
<glyph unicode="&#xe93b;" glyph-name="person" d="M103.754-52.864c-19.046 0.307-34.367 15.818-34.367 34.908 0 0.176 0.001 0.352 0.004 0.527 0 244.154 198.41 442.564 442.591 442.564s442.636-198.408 442.636-442.591c0.002-0.147 0.003-0.32 0.003-0.494 0-19.282-15.631-34.913-34.913-34.913s-34.913 15.631-34.913 34.913c0 0.174 0.001 0.347 0.004 0.52 0 206.49-166.3 372.747-372.818 372.747s-372.773-166.254-372.773-372.773c0.002-0.149 0.004-0.325 0.004-0.501 0-19.282-15.631-34.913-34.913-34.913-0.192 0-0.383 0.002-0.574 0.005zM512.018 355.341c-163.341 0-296.545 133.135-296.545 296.5 0 163.345 133.201 296.5 296.545 296.5s296.5-133.155 296.5-296.5c0-163.365-133.159-296.5-296.5-296.5zM512.018 425.159c125.613 0 226.682 101.046 226.682 226.682 0 125.609-101.073 226.682-226.682 226.682s-226.727-101.073-226.727-226.682c0-125.636 101.114-226.682 226.727-226.682z" />
<glyph unicode="&#xe93c;" glyph-name="plus" d="M512.149 75.636c-205.37 0-372.364 166.994-372.364 372.364s166.994 372.364 372.364 372.364c205.37 0 372.364-166.994 372.364-372.364s-166.994-372.364-372.364-372.364zM512.149 122.182c180.213 0 325.818 145.605 325.818 325.818s-145.605 325.818-325.818 325.818c-180.213 0-325.818-145.605-325.818-325.818s145.605-325.818 325.818-325.818zM511.785 214.955c-12.697 0.205-22.911 10.546-22.911 23.272 0 0.112 0.001 0.224 0.002 0.336v418.892c-0.001 0.098-0.002 0.213-0.002 0.329 0 12.854 10.421 23.275 23.275 23.275s23.275-10.421 23.275-23.275c0-0.116-0.001-0.231-0.003-0.347v-418.892c0.001-0.095 0.002-0.207 0.002-0.319 0-12.854-10.421-23.275-23.275-23.275-0.128 0-0.255 0.001-0.383 0.003zM302.694 424.727c-0.098-0.001-0.213-0.002-0.329-0.002-12.854 0-23.275 10.421-23.275 23.275s10.421 23.275 23.275 23.275c0.116 0 0.231-0.001 0.347-0.003h418.892c0.098 0.001 0.213 0.002 0.329 0.002 12.854 0 23.275-10.421 23.275-23.275s-10.421-23.275-23.275-23.275c-0.116 0-0.231 0.001-0.347 0.003h-418.892z" />
<glyph unicode="&#xe93d;" glyph-name="point-empty" d="M465.455 555.055c100.073 0 160.582 34.909 160.582 58.182s-60.509 58.182-160.582 58.182c-100.073 0-160.582-34.909-160.582-58.182 0-25.6 60.509-58.182 160.582-58.182zM525.964 387.491v-41.891c0-9.309 32.582-30.255 97.745-30.255s97.745 20.945 97.745 30.255v41.891c-23.273-11.636-55.855-20.945-97.745-20.945-44.218 0-76.8 9.309-97.745 20.945zM525.964 299.055v-41.891c0-9.309 32.582-32.582 97.745-32.582s97.745 20.945 97.745 32.582v41.891c-23.273-11.636-55.855-20.945-97.745-20.945-44.218 0-76.8 9.309-97.745 20.945zM621.382 464.291c-65.164 0-97.745-20.945-97.745-32.582 0-9.309 32.582-32.582 97.745-32.582s97.745 20.945 97.745 32.582c0 11.636-32.582 32.582-97.745 32.582zM512 941.382c-272.291 0-493.382-221.091-493.382-493.382s221.091-495.709 495.709-495.709c272.291 0 493.382 221.091 493.382 495.709 0 272.291-223.418 493.382-495.709 493.382zM465.455 415.418v-34.909c-60.509 0-123.345 13.964-160.582 39.564v-83.782c0-25.6 60.509-58.182 160.582-58.182v-34.909c-95.418 0-195.491 32.582-195.491 93.091v276.945c0 60.509 100.073 93.091 195.491 93.091s195.491-32.582 195.491-93.091v-102.4h-34.909v46.545c-37.236-25.6-100.073-39.564-160.582-39.564s-123.345 13.964-160.582 39.564v-83.782c0-23.273 60.509-58.182 160.582-58.182zM754.036 254.836c0-32.582-46.545-65.164-132.655-65.164s-132.655 32.582-132.655 67.491v176.873c0 32.582 46.545 67.491 132.655 67.491s132.655-32.582 132.655-67.491v-179.2z" />
<glyph unicode="&#xe93e;" glyph-name="read" d="M975.136 599.264c-9.312 4.64-32.576 11.648-58.176-11.648l-386.336-323.488c0 0 0 0 0 0l-267.648 297.888c-6.976 6.976-13.952 27.936-13.952 37.248v260.64h563.2v-249.024c0-20.96 16.288-37.248 37.248-37.248s37.248 16.288 37.248 37.248v253.664c0 39.552-32.576 72.16-72.16 72.16h-565.536c-18.624 0-37.248-6.976-51.2-20.96s-20.96-32.576-20.96-51.2v-95.424l-109.376-114.048c-20.96-20.96-34.912-58.176-34.912-86.112v-532.96c0-18.624 6.976-37.248 20.96-51.2s32.576-20.96 51.2-20.96v0h830.848c39.552 0 72.16 32.576 72.16 72.16v514.336c-2.336 32.576-23.264 46.56-32.576 48.864zM207.136 515.488l267.648-297.888c25.6-30.24 72.16-32.576 102.4-6.976l353.76 295.552v-470.112h-828.512v532.96c0 9.312 6.976 27.936 13.952 34.912l55.84 58.176v-60.512c2.336-27.936 16.288-65.152 34.912-86.112zM351.424 655.136c-20.96 0-37.248-16.288-37.248-37.248s16.288-37.248 37.248-37.248h404.96c20.96 0 37.248 16.288 37.248 37.248s-16.288 37.248-37.248 37.248h-404.96z" />
<glyph unicode="&#xe93f;" glyph-name="red-packet" d="M507.345 371.2c-6.982 0-16.291 4.655-20.945 11.636l-107.055 181.527c-6.982 11.636-2.327 25.6 9.309 32.582s25.6 2.327 32.582-9.309l107.055-183.855c6.982-11.636 2.327-25.6-9.309-32.582-2.327 0-6.982 0-11.636 0zM516.655 371.2c-4.655 0-6.982 0-11.636 2.327-11.636 6.982-13.964 20.945-9.309 32.582l107.055 183.855c6.982 11.636 20.945 13.964 32.582 9.309 11.636-6.982 13.964-20.945 9.309-32.582l-107.055-183.855c-4.655-6.982-11.636-11.636-20.945-11.636zM679.564 371.2h-332.8c-13.964 0-23.273 9.309-23.273 23.273s9.309 23.273 23.273 23.273h332.8c13.964 0 23.273-9.309 23.273-23.273s-11.636-23.273-23.273-23.273zM679.564 257.164h-332.8c-13.964 0-23.273 9.309-23.273 23.273s9.309 23.273 23.273 23.273h332.8c13.964 0 23.273-9.309 23.273-23.273s-11.636-23.273-23.273-23.273zM512 110.545c-13.964 0-23.273 9.309-23.273 23.273v260.655c0 13.964 9.309 23.273 23.273 23.273s23.273-9.309 23.273-23.273v-260.655c0-13.964-9.309-23.273-23.273-23.273zM216.409 914.409l-41.818-20.5c61.836-126.145 188.722-213.182 337.409-213.182s275.574 87.037 337.409 213.182l-41.818 20.5c-54.528-111.237-165.005-187.136-295.591-187.136s-241.063 75.899-295.591 187.136zM232.727 936.727c-51.428 0-93.091-41.663-93.091-93.091v-791.273c0-51.428 41.663-93.091 93.091-93.091h558.545c51.428 0 93.091 41.663 93.091 93.091v791.273c0 52.341-43.248 93.091-93.091 93.091h-558.545zM232.727 890.182h558.545c24.63 0 46.545-19.759 46.545-46.545v-791.273c0-27.699-18.846-46.545-46.545-46.545h-558.545c-27.699 0-46.545 18.846-46.545 46.545v791.273c0 27.699 18.846 46.545 46.545 46.545z" />
<glyph unicode="&#xe940;" glyph-name="redPacket" d="M841.535 960h-659.568c-64.312 0-116.658-52.347-116.658-116.658v-107.186c0 0 93.227-88.241 290.648-165.515 0 0-143.579-34.399-290.648 55.836v-573.32c0-64.312 52.347-116.658 116.658-116.658h659.568c64.312 0 116.658 52.347 116.658 116.658v573.32c-148.565-86.247-290.15-55.836-290.15-55.836 209.387 77.772 290.648 165.515 290.648 165.515v107.186c0 64.312-52.845 116.658-117.157 116.658zM512 286.473c-83.256 0-151.057 67.303-151.057 150.559s67.303 151.057 151.057 151.057c83.256 0 150.559-67.303 150.559-151.057 0-83.256-67.303-150.559-150.559-150.559z" />
<glyph unicode="&#xe941;" glyph-name="red-packet-empty" d="M498.347 540.16c0 0 1.707 0 1.707 0 73.387 0 143.36 39.253 199.68 110.933-1.707 20.48-18.773 35.84-39.253 35.84h-296.96c-22.187 0-39.253-17.067-39.253-39.253v-11.947c46.080-61.44 107.52-95.573 174.080-95.573zM500.053 512.853c0 0-1.707 0-1.707 0-64.853 0-126.293 29.013-175.787 81.92v-351.573c0-22.187 17.067-39.253 39.253-39.253h298.667c22.187 0 39.253 17.067 39.253 39.253v366.933c-56.32-61.44-128-97.28-199.68-97.28zM578.56 352.427c6.827 0 13.653-5.12 13.653-13.653 0-6.827-5.12-13.653-13.653-13.653h-52.907v-46.080c0-6.827-5.12-13.653-13.653-13.653s-13.653 5.12-13.653 13.653v46.080h-52.907c-6.827 0-13.653 5.12-13.653 13.653 0 6.827 5.12 13.653 13.653 13.653h52.907v18.773h-52.907c-6.827 0-13.653 5.12-13.653 13.653 0 6.827 5.12 13.653 13.653 13.653h40.96l-30.72 52.907c-3.413 6.827-1.707 13.653 5.12 18.773 6.827 3.413 13.653 1.707 18.773-5.12l34.133-56.32 34.133 56.32c3.413 6.827 11.947 8.533 18.773 5.12s8.533-11.947 5.12-18.773l-30.72-52.907h40.96c6.827 0 13.653-5.12 13.653-13.653 0-6.827-5.12-13.653-13.653-13.653h-52.907v-18.773h49.493zM512 942.933c-274.773 0-498.347-223.573-498.347-498.347s223.573-498.347 498.347-498.347 498.347 223.573 498.347 498.347c0 274.773-223.573 498.347-498.347 498.347zM727.040 243.2c0-35.84-29.013-66.56-66.56-66.56h-296.96c-35.84 0-66.56 29.013-66.56 66.56v402.773c0 35.84 29.013 66.56 66.56 66.56h298.667c35.84 0 66.56-29.013 66.56-66.56v-402.773z" />
<glyph unicode="&#xe942;" glyph-name="refrash" d="M512 64c-211.782 0-384 172.218-384 384 0 18.618 16.291 34.909 34.909 34.909s34.909-16.291 34.909-34.909c0-172.218 141.964-314.182 314.182-314.182 86.109 0 172.218 37.236 230.4 100.073 13.964 13.964 34.909 13.964 48.873 2.327s13.964-34.909 2.327-48.873c-72.145-79.127-174.545-123.345-281.6-123.345zM861.091 413.091c-18.618 0-34.909 16.291-34.909 34.909 0 172.218-141.964 314.182-314.182 314.182-86.109 0-172.218-37.236-230.4-100.073-13.964-13.964-34.909-13.964-48.873-2.327-13.964 13.964-13.964 34.909-2.327 48.873 72.145 79.127 174.545 123.345 281.6 123.345 211.782 0 384-172.218 384-384 0-18.618-16.291-34.909-34.909-34.909zM162.909 448h93.091l-46.545 72.145-46.545 67.491-93.091-139.636zM861.091 448h93.091l-46.545-72.145-46.545-67.491-93.091 139.636z" />
<glyph unicode="&#xe943;" glyph-name="repayment-bank" d="M279.273 192c-0.098-0.001-0.213-0.002-0.329-0.002-12.854 0-23.275 10.421-23.275 23.275s10.421 23.275 23.275 23.275c0.116 0 0.231-0.001 0.347-0.003h465.437c0.098 0.001 0.213 0.002 0.329 0.002 12.854 0 23.275-10.421 23.275-23.275s-10.421-23.275-23.275-23.275c-0.116 0-0.231 0.001-0.347 0.003h-465.437zM697.818 191.682c-12.697 0.205-22.911 10.546-22.911 23.272 0 0.112 0.001 0.224 0.002 0.336v209.438c-0.001 0.098-0.002 0.213-0.002 0.329 0 12.854 10.421 23.275 23.275 23.275s23.275-10.421 23.275-23.275c0-0.116-0.001-0.231-0.003-0.347v-209.437c0.001-0.095 0.002-0.207 0.002-0.319 0-12.854-10.421-23.275-23.275-23.275-0.128 0-0.255 0.001-0.383 0.003zM325.455 191.682c-12.697 0.205-22.911 10.546-22.911 23.272 0 0.112 0.001 0.224 0.002 0.336v209.438c-0.001 0.098-0.002 0.213-0.002 0.329 0 12.854 10.421 23.275 23.275 23.275s23.275-10.421 23.275-23.275c0-0.116-0.001-0.231-0.003-0.347v-209.437c0.001-0.095 0.002-0.207 0.002-0.319 0-12.854-10.421-23.275-23.275-23.275-0.128 0-0.255 0.001-0.383 0.003zM441.818 191.682c-12.697 0.205-22.911 10.546-22.911 23.272 0 0.112 0.001 0.224 0.002 0.336v139.619c-0.001 0.098-0.002 0.213-0.002 0.329 0 12.854 10.421 23.275 23.275 23.275s23.275-10.421 23.275-23.275c0-0.116-0.001-0.231-0.003-0.347v-139.619c0.001-0.095 0.002-0.207 0.002-0.319 0-12.854-10.421-23.275-23.275-23.275-0.128 0-0.255 0.001-0.383 0.003zM581.455 191.682c-12.697 0.205-22.911 10.546-22.911 23.272 0 0.112 0.001 0.224 0.002 0.336v139.619c-0.001 0.098-0.002 0.213-0.002 0.329 0 12.854 10.421 23.275 23.275 23.275s23.275-10.421 23.275-23.275c0-0.116-0.001-0.231-0.003-0.347v-139.619c0.001-0.095 0.002-0.207 0.002-0.319 0-12.854-10.421-23.275-23.275-23.275-0.128 0-0.255 0.001-0.383 0.003zM284.986 471.273c-12.517 0-25.51 6.509-31.591 18.682s-2.372 28.9 6.909 38.182l0.045 0.045 213.773 210.999c20.331 20.371 54.587 21.912 75.682 0.864l213.91-212.273c9.141-9.141 13.050-26.007 6.772-38.226s-19.216-18.273-31.455-18.273h-454.045zM316.077 517.818h391.545l-190.682 189.273c-2.557 2.562-6.62 2.523-9.909-0.773l-0.045-0.045-190.909-188.455zM512-40.727c-269.647 0-488.727 219.080-488.727 488.727s219.080 488.727 488.727 488.727c269.647 0 488.727-219.080 488.727-488.727s-219.080-488.727-488.727-488.727zM512 5.818c244.494 0 442.182 197.688 442.182 442.182s-197.688 442.182-442.182 442.182c-244.494 0-442.182-197.688-442.182-442.182s197.688-442.182 442.182-442.182z" />
<glyph unicode="&#xe944;" glyph-name="right" d="M460.455 284.064c-19.278 0.005-34.904 15.634-34.904 34.913 0 9.819 4.053 18.691 10.578 25.034l214.099 214.099c6.363 6.62 15.293 10.733 25.184 10.733 19.282 0 34.913-15.631 34.913-34.913 0-9.89-4.113-18.82-10.721-25.173l-214.102-214.102c-6.351-6.535-15.225-10.59-25.045-10.591zM460.118 284.093c-9.432 0.283-17.882 4.265-23.993 10.538l-111.735 111.735c-6.62 6.363-10.733 15.293-10.733 25.184 0 19.282 15.631 34.913 34.913 34.913 9.89 0 18.82-4.113 25.173-10.721l111.738-111.739c6.514-6.349 10.554-15.208 10.554-25.011 0-19.282-15.631-34.913-34.913-34.913-0.353 0-0.706 0.005-1.057 0.016z" />
<glyph unicode="&#xe945;" glyph-name="safari" d="M537.6 61.673c-211.782 0-384 174.545-384 386.327s167.564 377.018 384 377.018c186.182 0 353.745-148.945 379.345-337.455 2.327-9.309-2.327-20.945-9.309-27.927s-16.291-11.636-25.6-11.636h-276.945c-18.618 0-34.909 16.291-34.909 34.909s16.291 34.909 34.909 34.909h235.055c-37.236 134.982-165.236 239.709-302.545 239.709-176.873 0-314.182-137.309-314.182-309.527 0-174.545 141.964-316.509 314.182-316.509 123.345 0 235.055 69.818 286.255 179.2 6.982 18.618 27.927 25.6 46.545 16.291 18.618-6.982 25.6-27.927 16.291-46.545-60.509-132.655-197.818-218.764-349.091-218.764zM181.527 17.455c-23.273 0-41.891 6.982-55.855 20.945-39.564 39.564-25.6 111.709 41.891 221.091 55.855 93.091 146.618 200.145 251.345 304.873 151.273 151.273 432.873 384 525.964 293.236 44.218-44.218 18.618-132.655-72.145-265.309-11.636-16.291-32.582-20.945-48.873-9.309s-20.945 32.582-9.309 48.873c81.455 116.364 86.109 169.891 81.455 176.873-30.255 16.291-202.473-69.818-425.891-293.236-225.745-223.418-311.855-397.964-293.236-428.218 6.982-4.655 60.509 0 179.2 81.455 16.291 11.636 37.236 6.982 48.873-9.309s6.982-37.236-9.309-48.873c-93.091-60.509-162.909-93.091-214.109-93.091z" />
<glyph unicode="&#xe946;" glyph-name="search" d="M484.073 785.455c167.564 0 302.545-134.982 302.545-302.545s-134.982-302.545-302.545-302.545-302.545 134.982-302.545 302.545 137.309 302.545 302.545 302.545zM484.073 855.273c-204.8 0-372.364-167.564-372.364-372.364s167.564-372.364 372.364-372.364 372.364 167.564 372.364 372.364-165.236 372.364-372.364 372.364v0zM725.727 262.182c-19.278-0.005-34.904-15.634-34.904-34.913 0-9.819 4.053-18.691 10.578-25.034l186.19-186.19c6.363-6.62 15.293-10.733 25.184-10.733 19.282 0 34.913 15.631 34.913 34.913 0 9.89-4.113 18.82-10.721 25.173l-186.193 186.193c-6.351 6.535-15.225 10.59-25.045 10.591z" />
<glyph unicode="&#xe947;" glyph-name="select-all" d="M235.040 941.376c-121.024 0-218.752-97.76-218.752-218.752s97.76-218.752 218.752-218.752h218.752v218.752c0 121.024-97.76 218.752-218.752 218.752v0zM384 576h-148.96c-81.44 0-148.96 67.488-148.96 148.96s67.488 148.96 148.96 148.96c81.44 0 148.96-67.488 148.96-148.96v-148.96zM1007.712 724.96c0 121.024-97.76 218.752-218.752 218.752s-218.752-97.76-218.752-218.752v-218.752h218.752c121.024 0 218.752 97.76 218.752 218.752v0zM640 576v148.96c0 81.44 67.488 148.96 148.96 148.96s148.96-67.488 148.96-148.96c0-81.44-67.488-148.96-148.96-148.96h-148.96zM788.96-45.376c121.024 0 218.752 97.76 218.752 218.752s-97.76 218.752-218.752 218.752h-218.752v-218.752c0-121.024 97.76-218.752 218.752-218.752v0zM640 320h148.96c81.44 0 148.96-67.488 148.96-148.96s-67.488-148.96-148.96-148.96c-81.44 0-148.96 67.488-148.96 148.96v148.96zM16.288 171.040c0-121.024 97.76-218.752 218.752-218.752s218.752 97.76 218.752 218.752v218.752h-218.752c-121.024 0-218.752-97.76-218.752-218.752v0zM384 320v-148.96c0-81.44-67.488-148.96-148.96-148.96s-148.96 67.488-148.96 148.96c0 81.44 67.488 148.96 148.96 148.96h148.96zM216.448 925.088h11.648v-6.976h-11.648v6.976z" />
<glyph unicode="&#xe948;" glyph-name="setting" d="M345.045-15.288l-155.045 88.682 4.682 17.318c4.958 18.34 7.5 37.379 7.5 56.545 0 100.477-68.769 184.866-161.5 209.045l-17.409 4.5v174.409l17.409 4.5c92.724 24.157 161.5 108.549 161.5 209 0 19.166-2.542 38.205-7.5 56.545l-4.682 17.364 155.045 88.682 12.591-12.818c40.175-40.931 95.769-65 154.364-65s114.215 24.074 154.364 65l12.545 12.818 155.091-88.682-4.682-17.364c-4.958-18.34-7.5-37.379-7.5-56.545 0-100.451 68.776-184.843 161.5-209l17.409-4.5v-133.136l-0.645-34.471-4.514-1.089c-92.724-24.157-173.75-118.781-173.75-219.257 0-19.166 2.525-38.175 7.5-56.5l4.727-17.364-155.091-88.682-12.591 12.818c-40.175 40.931-95.769 64.955-154.364 64.955s-114.189-24.023-154.364-64.955zM340.409 40.985c47.295 41.526 106.954 68.045 171.591 68.045s124.296-26.519 171.591-68.045l98.364 56.227c-3.233 16.539-6.682 33.079-6.682 50.045 0 114.966 75.525 210.935 178.909 246.273v108.909c-103.386 35.336-178.909 131.325-178.909 246.273 0 16.966 3.415 33.515 6.636 50.045l-98.318 56.227c-47.278-41.519-106.963-68.045-171.591-68.045s-124.298 26.53-171.591 68.045l-98.318-56.227c3.222-16.53 6.636-33.079 6.636-50.045 0-114.948-75.523-210.937-178.909-246.273v-108.909c103.381-35.354 178.909-131.305 178.909-246.273 0-16.966-3.415-33.515-6.636-50.045zM512 308.364c-76.838 0-139.636 62.799-139.636 139.636s62.799 139.636 139.636 139.636c76.838 0 139.636-62.799 139.636-139.636s-62.799-139.636-139.636-139.636zM512 354.909c51.674 0 93.091 41.417 93.091 93.091s-41.417 93.091-93.091 93.091c-51.674 0-93.091-41.417-93.091-93.091s41.417-93.091 93.091-93.091z" />
<glyph unicode="&#xe949;" glyph-name="shield" d="M899.19 805.933c-113.76 52.912-322.607 142.24-384.545 142.551-61.782-0.311-271.562-89.95-385.79-143.018-26.145-11.983-43.263-39.528-42.641-68.319 1.867-96.642 14.784-238.415 65.050-365.247 58.981-148.931 140.216-248.997 197.797-306.733 65.673-65.829 127.922-103.956 157.957-111.582 2.334-0.622 4.824-0.934 7.159-0.934 2.49 0 5.136 0.311 7.47 0.934 31.903 8.404 94.619 48.399 162.626 118.896 56.491 58.359 135.548 157.646 191.883 299.263 50.266 126.366 63.183 268.917 65.206 366.026 0.622 26.145-18.675 57.269-42.174 68.163zM882.539 739.171c-1.867-92.284-14.006-227.21-61.004-345.483-50.889-127.922-122.164-218.962-173.053-272.652-62.249-65.673-113.76-98.509-134.458-107.691-22.254 9.182-73.298 40.306-134.147 104.112-50.111 52.601-121.075 143.329-173.675 276.231-47.154 118.585-59.137 252.888-61.004 344.705v0c-0.156 6.381 4.202 11.827 8.404 13.85 165.894 76.878 324.63 137.26 361.046 137.415 37.194-0.156 191.728-58.981 359.489-136.948 2.646-1.712 8.404-10.894 8.404-13.539zM760.374 644.241c-8.871 0-17.274-3.424-23.499-9.649l-263.314-263.47-146.441 152.666c-6.381 6.536-14.784 10.271-23.966 10.271v0c-8.559 0-16.807-3.268-23.032-9.182-13.228-12.605-13.695-33.77-0.934-46.998l169.94-177.099c0.156-0.156 0.156-0.156 0.311-0.311s0.156-0.156 0.311-0.311 0.311-0.156 0.311-0.311 0.467-0.467 0.622-0.622c0.156-0.156 0.311-0.311 0.622-0.467s0.467-0.467 0.778-0.622c0.156-0.156 0.311-0.311 0.467-0.467 0.311-0.156 0.622-0.467 0.778-0.622s0.311-0.156 0.467-0.311 0.622-0.467 0.934-0.622c0.156 0 0.156-0.156 0.311-0.156 0.311-0.156 0.778-0.467 1.089-0.622 0.156 0 0.156-0.156 0.311-0.156 0.467-0.156 0.778-0.467 1.245-0.622 0 0 0.156 0 0.156-0.156 0.467-0.156 0.778-0.467 1.245-0.622 0 0 0 0 0.156 0 0.467-0.156 0.934-0.467 1.401-0.622 0 0 0 0 0.156 0 0.467-0.156 0.934-0.311 1.401-0.622 0 0 0 0 0 0 0.467-0.156 0.934-0.311 1.401-0.467 0 0 0 0 0.156 0 0.467-0.156 0.934-0.311 1.401-0.467 0 0 0.156 0 0.156 0 0.467-0.156 0.934-0.156 1.401-0.311 0.156 0 0.156 0 0.311 0 0.467-0.156 0.934-0.156 1.245-0.156 0.156 0 0.311 0 0.467 0 0.311 0 0.778-0.156 1.089-0.156s0.622 0 0.934 0c0.311 0 0.467 0 0.778 0 0.622 0 1.089 0 1.712 0 0 0 0 0 0 0s0 0 0 0c0.467 0 1.089 0 1.556 0 0.311 0 0.467 0 0.778 0s0.622 0 0.778 0c0.311 0 0.778 0.156 1.089 0.156 0.156 0 0.311 0 0.467 0 0.467 0 0.778 0.156 1.245 0.156 0.156 0 0.156 0 0.311 0 0.467 0.156 0.934 0.156 1.401 0.311 0 0 0.156 0 0.156 0 0.467 0.156 0.934 0.311 1.401 0.311 0 0 0 0 0.156 0 0.467 0.156 0.934 0.311 1.401 0.467 0 0 0 0 0 0 0.467 0.156 0.934 0.311 1.401 0.467 0 0 0 0 0.156 0 0.467 0.156 0.934 0.311 1.401 0.622 0 0 0 0 0.156 0 0.467 0.156 0.778 0.467 1.245 0.622 0 0 0.156 0 0.156 0.156 0.467 0.156 0.778 0.467 1.245 0.622 0.156 0 0.156 0.156 0.311 0.156 0.311 0.156 0.778 0.467 1.089 0.622 0.156 0 0.156 0.156 0.311 0.156 0.311 0.156 0.622 0.467 0.934 0.622 0.156 0.156 0.311 0.156 0.467 0.311 0.311 0.156 0.622 0.467 0.778 0.622s0.311 0.311 0.467 0.311 0.467 0.467 0.778 0.622c0.156 0.156 0.311 0.311 0.622 0.467 0.156 0.156 0.467 0.311 0.622 0.622 0.156 0.156 0.311 0.156 0.311 0.311 0.156 0 0.156 0.156 0.311 0.311s0.156 0.156 0.311 0.311l287.28 287.28c12.917 12.917 12.917 34.081 0 46.998-6.692 6.069-15.095 9.649-23.966 9.649z" />
<glyph unicode="&#xe94a;" glyph-name="sign" d="M125.863 809.891c-66.462 0-121.040-54.578-121.040-121.040v-580.993c0-66.462 54.578-121.040 121.040-121.040h774.657c66.462 0 121.040 54.578 121.040 121.040v580.993c0 66.462-54.578 121.040-121.040 121.040h-774.657zM125.863 761.475h774.657c40.053 0 72.624-32.571 72.624-72.624v-580.993c0-40.053-32.571-72.624-72.624-72.624h-774.657c-40.053 0-72.624 32.571-72.624 72.624v580.993c0 40.053 32.571 72.624 72.624 72.624zM29.031 616.227v-48.416h968.322v48.416h-968.322zM803.357 907.102c-13.228-0.186-23.88-10.953-23.88-24.208 0-0.133 0.001-0.266 0.003-0.398v-96.812c-0.002-0.102-0.002-0.222-0.002-0.342 0-13.371 10.839-24.21 24.21-24.21s24.21 10.839 24.21 24.21c0 0.12-0.001 0.241-0.003 0.36v96.814c0.002 0.112 0.003 0.245 0.003 0.378 0 13.371-10.839 24.21-24.21 24.21-0.117 0-0.233-0.001-0.349-0.002zM222.364 907.102c-13.228-0.186-23.88-10.953-23.88-24.208 0-0.133 0.001-0.266 0.003-0.398v-96.812c-0.002-0.102-0.002-0.222-0.002-0.342 0-13.371 10.839-24.21 24.21-24.21s24.21 10.839 24.21 24.21c0 0.12-0.001 0.241-0.003 0.36v96.814c0.002 0.112 0.003 0.245 0.003 0.378 0 13.371-10.839 24.21-24.21 24.21-0.117 0-0.233-0.001-0.349-0.002zM450.27 449.21c21.787-19.366 31.47-43.574 31.47-72.624s-12.104-55.678-33.891-82.307c-12.104-14.525-36.312-31.47-72.624-55.678-43.574-29.050-67.783-55.678-75.045-79.887h181.56v-36.312h-229.976c0 31.47 12.104 60.52 33.891 84.728 14.525 16.946 38.733 36.312 75.045 60.52 26.629 19.366 45.995 33.891 53.258 43.574 16.946 19.366 26.629 38.733 26.629 62.941 0 21.787-7.262 36.312-19.366 48.416s-29.050 16.946-53.258 16.946c-24.208 0-41.154-7.262-55.678-24.208s-21.787-38.733-21.787-70.203h-38.733c0 38.733 9.683 70.203 31.47 91.991 21.787 24.208 48.416 33.891 84.728 33.891 36.312 4.842 62.941-4.842 82.307-21.787zM740.766 451.631c19.366-16.946 29.050-38.733 29.050-67.783 0-38.733-19.366-65.362-55.678-77.466 21.787-7.262 36.312-16.946 45.995-29.050 12.104-14.525 16.946-31.47 16.946-50.837 0-31.47-12.104-55.678-33.891-77.466-21.787-19.366-50.837-31.47-87.149-31.47-31.47 0-58.099 7.262-79.887 24.208-24.208 19.366-38.733 50.837-41.154 89.57h41.154c0-26.629 9.683-48.416 26.629-62.941 14.525-12.104 33.891-16.946 53.258-16.946 24.208 0 43.574 7.262 60.52 21.787 14.525 14.525 21.787 31.47 21.787 50.837 0 21.787-7.262 36.312-19.366 48.416s-31.47 16.946-55.678 16.946h-29.050v31.47h26.629c21.787 0 41.154 4.842 53.258 14.525s19.366 26.629 19.366 45.995c0 19.366-4.842 33.891-16.946 45.995s-29.050 16.946-53.258 16.946c-24.208 0-41.154-7.262-53.258-19.366s-21.787-29.050-24.208-53.258h-38.733c2.421 33.891 14.525 58.099 36.312 77.466 19.366 19.366 45.995 29.050 79.887 29.050 31.47-2.421 58.099-9.683 77.466-26.629z" />
<glyph unicode="&#xe94b;" glyph-name="sign-empty" d="M125.863 809.929c-66.462 0-121.040-54.578-121.040-121.040v-580.993c0-66.462 54.578-121.040 121.040-121.040h774.657c66.462 0 121.040 54.578 121.040 121.040v580.993c0 66.462-54.578 121.040-121.040 121.040h-774.657zM125.863 761.513h774.657c40.053 0 72.624-32.571 72.624-72.624v-580.993c0-40.053-32.571-72.624-72.624-72.624h-774.657c-40.053 0-72.624 32.571-72.624 72.624v580.993c0 40.053 32.571 72.624 72.624 72.624zM29.031 616.265v-48.416h968.322v48.416h-968.322zM803.357 907.092c-13.228-0.187-23.879-10.954-23.879-24.208 0-0.116 0.001-0.232 0.002-0.348v-96.815c-0.002-0.102-0.002-0.222-0.002-0.342 0-13.371 10.839-24.21 24.21-24.21s24.21 10.839 24.21 24.21c0 0.12-0.001 0.241-0.003 0.36v96.814c0.001 0.098 0.002 0.214 0.002 0.331 0 13.371-10.839 24.21-24.21 24.21-0.116 0-0.232-0.001-0.348-0.002zM222.364 907.092c-13.228-0.187-23.879-10.954-23.879-24.208 0-0.116 0.001-0.232 0.002-0.348v-96.815c-0.002-0.102-0.002-0.222-0.002-0.342 0-13.371 10.839-24.21 24.21-24.21s24.21 10.839 24.21 24.21c0 0.12-0.001 0.24-0.003 0.36v96.814c0.001 0.098 0.002 0.214 0.002 0.331 0 13.371-10.839 24.21-24.21 24.21-0.116 0-0.232-0.001-0.348-0.002z" />
<glyph unicode="&#xe94c;" glyph-name="store" d="M814.545-17.455h-605.091c-65.164 0-116.364 51.2-116.364 116.364l46.545 700.509c0 62.836 51.2 114.036 116.364 114.036h512c65.164 0 116.364-51.2 116.364-116.364l46.545-698.182c0-65.164-51.2-116.364-116.364-116.364zM256 866.909c-39.564 0-69.818-30.255-69.818-69.818l-46.545-700.509c0-37.236 30.255-67.491 69.818-67.491h605.091c37.236 0 69.818 30.255 69.818 69.818l-46.545 698.182c0 39.564-30.255 69.818-69.818 69.818h-512zM512 501.527c-116.364 0-209.455 93.091-209.455 209.455 0 13.964 9.309 23.273 23.273 23.273s23.273-9.309 23.273-23.273c0-90.764 72.145-162.909 162.909-162.909s162.909 72.145 162.909 162.909c0 13.964 9.309 23.273 23.273 23.273s23.273-9.309 23.273-23.273c0-116.364-93.091-209.455-209.455-209.455z" />
<glyph unicode="&#xe94d;" glyph-name="student" d="M512 960c-282.767 0-512-229.233-512-512s229.233-512 512-512c282.767 0 512 229.233 512 512s-229.233 512-512 512zM511.84 697.557c0.047 0 0.103 0.001 0.158 0.001 3.056 0 5.925-0.803 8.406-2.21l293.462-163.796c5.262-2.975 8.755-8.533 8.755-14.907 0-0.287-0.007-0.572-0.021-0.855 0.009-0.15 0.013-0.373 0.013-0.597 0-0.072 0-0.145-0.001-0.217v-273.056c0.001-0.073 0.002-0.159 0.002-0.246 0-9.427-7.642-17.068-17.068-17.068-0.090 0-0.18 0.001-0.27 0.002-9.302 0.144-16.799 7.73-16.799 17.066 0 0.086 0.001 0.173 0.002 0.259v245.64l-88.757-49.536v-140.597h0.011c0-0.133-0.020-0.261-0.021-0.395-0.008-0.641-0.051-1.263-0.126-1.874-0.709-14.207-8.244-26.909-18.605-36.707-10.891-10.3-25.131-18.419-41.963-25.152-33.664-13.465-78.046-21.205-127.019-21.205s-93.355 7.74-127.019 21.205c-16.832 6.733-31.071 14.852-41.963 25.152-10.344 9.782-17.864 22.455-18.603 36.715-0.082 0.606-0.133 1.313-0.139 2.030 0 0.083-0.011 0.156-0.011 0.231h0.011v140.587l-114.144 63.712c-5.261 2.976-8.754 8.533-8.754 14.907s3.493 11.931 8.67 14.862l293.632 163.884c2.351 1.337 5.159 2.136 8.151 2.165zM512 660.939l-258.517-144.299 258.517-144.288 258.517 144.288-258.517 144.299zM665.589 418.987l-145.269-81.088c-2.351-1.337-5.159-2.136-8.151-2.165-0.056-0.001-0.111-0.001-0.167-0.001-3.056 0-5.925 0.803-8.406 2.21l-145.185 81.033v-121.536c0-0.010 0-0.021 0-0.032s0-0.023 0-0.034c0.019-3.648 1.708-8.109 8.053-14.11 6.381-6.035 17.137-12.63 31.189-18.251 28.105-11.242 69.063-18.773 114.347-18.773s86.241 7.531 114.347 18.773c14.053 5.621 24.808 12.216 31.189 18.251 6.34 5.996 8.032 10.453 8.053 14.101 0 0.011 0 0.024 0 0.037s0 0.026 0 0.039v121.545z" />
<glyph unicode="&#xe94e;" glyph-name="succeed" d="M595.782 529.455c-90.764 0-162.909-72.145-162.909-162.909s72.145-162.909 162.909-162.909 162.909 72.145 162.909 162.909-74.473 162.909-162.909 162.909zM716.8 413.091l-130.327-130.327c-2.327-2.327-6.982-4.655-11.636-4.655s-9.309 2.327-11.636 4.655l-69.818 69.818c-6.982 6.982-6.982 16.291 0 23.273s16.291 6.982 23.273 0l58.182-58.182 118.691 118.691c6.982 6.982 16.291 6.982 23.273 0s6.982-18.618 0-23.273zM512 960c-283.927 0-512-228.073-512-512s228.073-512 512-512 512 228.073 512 512-228.073 512-512 512zM423.564 182.691h-123.345c-37.236 0-67.491 30.255-67.491 67.491v407.273c0 37.236 30.255 67.491 67.491 67.491h409.6c37.236 0 67.491-30.255 67.491-67.491v-121.018c0-9.309-6.982-16.291-16.291-16.291s-16.291 6.982-16.291 16.291v121.018c0 18.618-16.291 34.909-34.909 34.909h-409.6c-18.618 0-34.909-16.291-34.909-34.909v-407.273c0-18.618 16.291-34.909 34.909-34.909h123.345c9.309 0 16.291-6.982 16.291-16.291s-6.982-16.291-16.291-16.291zM679.564 599.273c0-9.309-6.982-16.291-16.291-16.291h-316.509c-9.309 0-16.291 6.982-16.291 16.291s6.982 16.291 16.291 16.291h314.182c11.636 0 18.618-6.982 18.618-16.291zM595.782 168.727c-81.455 0-153.6 51.2-181.527 123.345 0 0-2.327 0-2.327 0h-65.164c-9.309 0-16.291 6.982-16.291 16.291s6.982 16.291 16.291 16.291h55.855c-2.327 13.964-4.655 25.6-4.655 39.564 0 25.6 4.655 48.873 13.964 72.145h-65.164c-9.309 0-16.291 6.982-16.291 16.291s6.982 16.291 16.291 16.291h81.455c0 0 0 0 0 0 34.909 55.855 95.418 90.764 165.236 90.764 109.382 0 195.491-88.436 195.491-195.491s-86.109-195.491-193.164-195.491z" />
<glyph unicode="&#xe94f;" glyph-name="triple" d="M395.62 448c0-25.716-20.829-46.545-46.545-46.545s-46.545 20.829-46.545 46.545c0 25.716 20.829 46.545 46.545 46.545s46.545-20.829 46.545-46.545zM558.545 448c0-25.716-20.829-46.545-46.545-46.545s-46.545 20.829-46.545 46.545c0 25.716 20.829 46.545 46.545 46.545s46.545-20.829 46.545-46.545zM721.471 448c0-25.716-20.829-46.545-46.545-46.545s-46.545 20.829-46.545 46.545c0 25.716 20.829 46.545 46.545 46.545s46.545-20.829 46.545-46.545z" />
<glyph unicode="&#xe950;" glyph-name="unvisible" d="M512 238.545c-265.309 0-474.764 253.673-484.073 265.309-6.982 9.309-6.982 25.6 2.327 32.582s25.6 6.982 32.582-2.327c4.655-4.655 207.127-249.018 449.164-249.018s444.509 246.691 446.836 249.018c6.982 9.309 23.273 11.636 32.582 2.327 9.309-6.982 11.636-23.273 2.327-32.582-6.982-11.636-216.436-265.309-481.745-265.309zM512 143.127c-13.964 0-23.273 9.309-23.273 23.273v95.418c0 13.964 9.309 23.273 23.273 23.273s23.273-9.309 23.273-23.273v-95.418c0-13.964-9.309-23.273-23.273-23.273zM700.509 164.073c-9.309 0-18.618 6.982-23.273 16.291l-25.6 93.091c-2.327 11.636 4.655 25.6 16.291 27.927s25.6-4.655 27.927-16.291l25.6-93.091c2.327-11.636-4.655-25.6-16.291-27.927-2.327 0-4.655 0-4.655 0zM323.491 164.073c-2.327 0-4.655 0-6.982 0-11.636 2.327-18.618 16.291-16.291 27.927l25.6 93.091c2.327 11.636 16.291 18.618 27.927 16.291s18.618-16.291 16.291-27.927l-25.6-93.091c0-9.309-9.309-16.291-20.945-16.291zM849.455 254.836c-6.982 0-11.636 2.327-16.291 6.982l-67.491 67.491c-9.309 9.309-9.309 23.273 0 32.582s23.273 9.309 32.582 0l67.491-67.491c9.309-9.309 9.309-23.273 0-32.582-4.655-4.655-9.309-6.982-16.291-6.982zM174.545 254.836c-6.982 0-11.636 2.327-16.291 6.982-9.309 9.309-9.309 23.273 0 32.582l67.491 67.491c9.309 9.309 23.273 9.309 32.582 0s9.309-23.273 0-32.582l-67.491-67.491c-4.655-4.655-11.636-6.982-16.291-6.982z" />
<glyph unicode="&#xe951;" glyph-name="up" d="M511.318 669.091c-12.604-0.194-23.963-5.368-32.227-13.636l-349.091-349.091c-8.827-8.485-14.311-20.391-14.311-33.579 0-25.709 20.841-46.55 46.55-46.55 13.187 0 25.094 5.484 33.564 14.295l316.196 316.197 316.182-316.182c8.485-8.827 20.391-14.311 33.579-14.311 25.709 0 46.55 20.841 46.55 46.55 0 13.188-5.484 25.094-14.296 33.564l-349.106 349.106c-8.425 8.428-20.065 13.641-32.923 13.641-0.235 0-0.469-0.002-0.703-0.005z" />
<glyph unicode="&#xe952;" glyph-name="upgrade" d="M509.952 888.32c-247.808 0-450.56-202.752-450.56-450.56v-24.576c0-8.192 12.288-16.384 20.48-16.384 12.288 0 20.48 8.192 20.48 20.48v20.48c0 227.328 184.32 411.648 411.648 411.648 225.28 0 409.6-184.32 409.6-411.648s-184.32-411.648-411.648-411.648c-149.504 0-286.72 81.92-360.448 210.944v4.096l202.752 167.936 106.496-106.496c8.192-8.192 20.48-8.192 26.624 0l258.048 223.232v-129.024c0-12.288 8.192-20.48 20.48-20.48s20.48 8.192 20.48 20.48v176.128c0 12.288-8.192 20.48-20.48 20.48h-176.128c-12.288 0-20.48-8.192-20.48-20.48s8.192-20.48 20.48-20.48h124.928l-241.664-204.8-106.496 106.496c-8.192 8.192-20.48 8.192-26.624 0l-235.52-196.608c-8.192-8.192-8.192-20.48-4.096-26.624 4.096-4.096 8.192-4.096 12.288-8.192v-4.096c77.824-145.408 231.424-231.424 395.264-231.424 247.808 0 450.56 202.752 450.56 450.56 0 245.76-198.656 450.56-446.464 450.56v0z" />
</font>
</defs>
</svg>
